<svg width="460" height="472" viewBox="0 0 460 472" fill="none" xmlns="http://www.w3.org/2000/svg">
<path d="M411.109 14.259L409.467 13.8232C402.728 11.9373 395.601 11.9299 388.858 13.8019C382.115 15.674 376.012 19.3541 371.209 24.4442C369.966 25.784 368.828 27.2172 367.804 28.7312C364.136 34.2641 361.893 40.6174 361.272 47.2264C360.652 53.8354 361.673 60.4953 364.247 66.6143C367.287 73.7997 372.618 80.4379 372.881 88.2212C373.236 98.3558 365.118 106.464 357.608 113.162C350.099 119.861 342.011 127.989 342.407 138.124C342.65 144.468 346.359 150.285 351.011 154.674C363.314 166.268 382.256 169.075 398.258 164.17C414.261 159.265 427.476 147.59 437.053 133.898C450.462 114.713 457.475 90.461 453.421 67.2122C449.367 43.9635 433.314 22.3362 411.109 14.259Z" fill="white"/>
<path d="M43.4561 27.3022L45.0979 26.8563C51.8384 24.975 58.9647 24.971 65.7073 26.8446C72.4499 28.7183 78.5525 32.3984 83.356 37.4875C84.5965 38.8259 85.7347 40.2555 86.7613 41.7643C90.4287 47.2993 92.6716 53.6549 93.2905 60.2658C93.9093 66.8766 92.8849 73.538 90.3084 79.6575C87.268 86.843 81.9473 93.4811 81.6838 101.265C81.3291 111.399 89.4469 119.507 96.9465 126.206C104.446 132.905 112.554 141.023 112.148 151.167C111.905 157.512 108.196 163.329 103.544 167.717C91.2407 179.311 72.2992 182.108 56.2967 177.213C40.2941 172.318 27.109 160.633 17.5116 146.941C4.1035 127.756 -2.90964 103.504 1.1442 80.2555C5.19804 57.0067 21.2411 35.4099 43.4561 27.3022Z" fill="white"/>
<path d="M136.796 225.18C146.63 225.18 154.602 217.208 154.602 207.374C154.602 197.54 146.63 189.567 136.796 189.567C126.961 189.567 118.989 197.54 118.989 207.374C118.989 217.208 126.961 225.18 136.796 225.18Z" fill="white"/>
<path d="M452.762 448.608C452.762 448.75 352.642 448.872 229.173 448.872C105.703 448.872 5.56299 448.75 5.56299 448.608C5.56299 448.466 105.652 448.345 229.173 448.345C352.693 448.345 452.762 448.456 452.762 448.608Z" fill="#263238"/>
<path d="M123.722 239.917C112.848 245.552 104.466 255.251 98.5173 265.932C92.5683 276.614 88.6564 288.32 84.8762 299.924L81.5317 359.921C94.1797 338.395 104.335 313.089 107.081 288.279L98.6592 287.529C104.304 286.668 109.047 282.573 112.057 277.719C115.067 272.865 116.628 267.28 118.138 261.777L107.872 263.297C115.963 257.83 121.639 249.457 123.722 239.917Z" fill="#4BD281"/>
<g opacity="0.3">
<path d="M123.722 239.917C112.848 245.552 104.466 255.251 98.5173 265.932C92.5683 276.614 88.6564 288.32 84.8762 299.924L81.5317 359.921C94.1797 338.395 104.335 313.089 107.081 288.279L98.6592 287.529C104.304 286.668 109.047 282.573 112.057 277.719C115.067 272.865 116.628 267.28 118.138 261.777L107.872 263.297C115.963 257.83 121.639 249.457 123.722 239.917Z" fill="black"/>
</g>
<path d="M79.6062 374.008C79.6062 374.008 52.1414 341.141 52.4454 309.755H63.5935C63.5935 309.755 51.5029 301.829 52.4454 297.401C53.388 292.972 53.7224 276.118 53.7224 276.118L63.857 278.652C63.857 278.652 56.256 274.851 55.3034 268.831C54.3507 262.811 57.5127 234.951 57.5127 234.951C57.5127 234.951 69.8769 247.954 73.7281 261.301C77.5792 274.648 87.5111 290.144 84.5822 330.713C81.6533 371.282 79.6062 374.008 79.6062 374.008Z" fill="#4BD281"/>
<path d="M93.5313 377.109C93.5313 377.109 123.286 357.285 129.894 331.989L120.976 329.567C120.976 329.567 132.397 325.827 132.6 322.057C132.803 318.287 136.228 304.707 136.228 304.707L127.513 304.525C127.513 304.525 134.465 303.126 136.543 298.444C138.62 293.762 142.177 270.695 142.177 270.695C142.177 270.695 129.398 278.438 123.428 288.309C117.459 298.18 106.037 308.477 99.5107 341.739C92.984 375.001 93.5313 377.109 93.5313 377.109Z" fill="#4BD281"/>
<path d="M65.0327 263.611C65.0773 263.723 65.1113 263.838 65.1341 263.956L65.3773 264.969C65.58 265.892 65.8739 267.199 66.2489 268.871C66.6239 270.543 67.0698 272.641 67.5461 275.053C68.0224 277.465 68.5596 280.222 69.1676 283.272C70.3432 289.353 71.5898 296.65 72.8668 304.758C74.1437 312.865 75.3396 321.814 76.4341 331.219C77.5287 340.624 78.3496 349.613 78.9982 357.802C79.6468 365.991 80.0117 373.359 80.2954 379.561C80.4576 382.662 80.5285 385.47 80.5995 387.932C80.6704 390.395 80.7312 392.523 80.7413 394.256C80.7515 395.989 80.7413 397.297 80.7413 398.249V399.263C80.7501 399.381 80.7501 399.499 80.7413 399.618C80.731 399.5 80.731 399.381 80.7413 399.263C80.7413 398.999 80.7413 398.655 80.7413 398.249C80.7413 397.297 80.6603 395.959 80.5995 394.256C80.5386 392.554 80.4778 390.395 80.3664 387.932C80.2549 385.47 80.1637 382.673 79.9914 379.571C79.6975 373.379 79.2009 366.001 78.5725 357.823C77.9442 349.644 77.0523 340.675 75.9781 331.27C74.9038 321.865 73.6573 312.936 72.4411 304.829C71.225 296.721 69.9885 289.434 68.8636 283.333C68.3265 280.293 67.7792 277.526 67.3231 275.104C66.8671 272.682 66.4516 270.594 66.107 268.902C65.7624 267.209 65.5192 265.912 65.3266 264.979C65.2557 264.554 65.1847 264.209 65.1442 263.966C65.0954 263.852 65.058 263.733 65.0327 263.611Z" fill="#263238"/>
<path d="M75.7552 394.176C75.7552 394.176 50.6214 365.657 42.8178 348.428L48.7161 345.905C44.4393 346.614 40.0713 344.78 36.7573 341.993C33.4433 339.206 31.011 335.537 28.6496 331.929L36.4127 330.611C29.2745 328.568 23.2006 323.849 19.4575 317.437C28.5787 318.947 36.8992 323.973 43.7805 330.257C49.1983 335.472 54.1211 341.179 58.4858 347.303C60.668 350.243 62.5682 353.381 64.1612 356.678C68.3873 365.424 75.816 383.666 75.7552 394.176Z" fill="#4BD281"/>
<path d="M130.289 287.337C130.264 287.441 130.223 287.54 130.168 287.631C130.076 287.844 129.945 288.117 129.783 288.462L128.262 291.624C126.914 294.36 124.999 298.343 122.698 303.289C120.398 308.234 117.712 314.153 114.844 320.771C111.976 327.389 108.986 334.726 105.976 342.479C102.966 350.232 100.281 357.681 97.9295 364.532C95.5783 371.383 93.5818 377.525 91.9704 382.774C90.359 388.024 89.0922 392.21 88.2409 395.139C87.8152 396.578 87.4808 397.703 87.2274 398.513L86.9538 399.385C86.9294 399.487 86.8919 399.586 86.8423 399.679C86.8484 399.575 86.8689 399.473 86.9031 399.375C86.9031 399.142 87.0348 398.848 87.1261 398.483L88.028 395.088C88.8084 392.139 90.0549 387.892 91.5954 382.663C93.1359 377.433 95.1324 371.241 97.4431 364.421C99.7538 357.6 102.51 350.121 105.46 342.347C108.409 334.574 111.54 327.247 114.378 320.629C117.216 314.011 119.993 308.032 122.374 303.127C124.756 298.221 126.692 294.249 128.09 291.533L129.712 288.411L130.147 287.611C130.187 287.515 130.234 287.424 130.289 287.337Z" fill="#263238"/>
<path d="M77.9339 406.337C77.87 406.167 77.8291 405.99 77.8122 405.81C77.7413 405.404 77.6602 404.908 77.5589 404.3C77.3663 402.982 77.042 401.087 76.5454 398.746C76.0488 396.405 75.4509 393.679 74.63 390.638C73.8091 387.598 72.7348 384.325 71.468 380.929C70.2012 377.534 68.7823 374.383 67.4141 371.545C66.046 368.707 64.6981 366.234 63.4921 364.177C62.286 362.12 61.2928 360.488 60.5632 359.373L59.7524 358.076C59.6445 357.931 59.5591 357.77 59.499 357.6C59.6276 357.723 59.74 357.863 59.8335 358.015L60.7354 359.262C61.5158 360.336 62.5698 361.957 63.7758 363.995C64.9818 366.032 66.4007 368.515 67.8297 371.332C69.2586 374.149 70.6268 377.332 71.8835 380.737C73.1402 384.142 74.1942 387.466 75.0252 390.517C75.8563 393.567 76.4339 396.344 76.8495 398.695C77.265 401.047 77.5285 402.952 77.6602 404.28L77.8122 405.81C77.8703 405.981 77.911 406.158 77.9339 406.337Z" fill="#263238"/>
<path d="M111.084 399.648H56.084V410.867H111.084V399.648Z" fill="#FF725E"/>
<path d="M61.3335 410.867L67.2825 448.608H100.514L106.057 410.867H61.3335Z" fill="#FF725E"/>
<path d="M107.72 410.867C107.72 411.009 97.3117 411.131 84.4813 411.131C71.6509 411.131 61.2427 411.009 61.2427 410.867C61.2427 410.725 71.6408 410.604 84.4813 410.604C97.3218 410.604 107.72 410.725 107.72 410.867Z" fill="#263238"/>
<path d="M363.852 230.785C364.16 231.546 364.292 232.367 364.237 233.187C364.433 232.219 364.803 231.295 365.331 230.46C365.534 230.146 365.848 229.812 366.203 229.903C366.558 229.994 366.679 230.45 366.689 230.815C366.728 231.836 366.497 232.85 366.02 233.754C366.681 232.921 367.533 232.261 368.503 231.829C368.586 231.784 368.678 231.761 368.772 231.761C368.866 231.761 368.958 231.784 369.041 231.829C369.233 231.94 369.233 232.203 369.203 232.426C369.068 233.279 368.719 234.083 368.186 234.762C367.654 235.441 366.958 235.973 366.162 236.308L365.635 236.379C364.503 236.071 363.528 235.346 362.906 234.35C362.284 233.355 362.061 232.161 362.281 231.008C362.362 230.572 362.605 230.065 363.051 230.055C363.497 230.045 363.71 230.41 363.852 230.785Z" fill="#FF725E"/>
<path d="M375.648 254.317C374.117 253.349 372.425 252.663 370.652 252.29C371.701 248.689 371.75 244.87 370.794 241.244C370.453 239.802 369.819 238.446 368.929 237.261C368.477 236.675 367.911 236.188 367.264 235.829C366.618 235.47 365.905 235.247 365.169 235.173C364.374 235.157 363.586 235.322 362.864 235.655C362.143 235.989 361.506 236.483 361.004 237.099L359.159 241.365C359.045 241.985 358.971 242.611 358.936 243.24C358.713 247.392 359.647 251.525 361.632 255.179C360.372 256.498 359.417 258.077 358.832 259.805C358.247 261.533 358.048 263.368 358.247 265.181H380.158C380.387 263.137 380.093 261.068 379.304 259.168C378.515 257.268 377.257 255.599 375.648 254.317Z" fill="#455A64"/>
<path d="M360.649 256.567C360.649 256.567 360.7 256.476 360.811 256.334C360.983 256.112 361.166 255.899 361.359 255.696C362.071 254.958 362.891 254.333 363.791 253.841C365.125 253.102 366.592 252.633 368.108 252.463C369.975 252.221 371.872 252.487 373.6 253.232C375.328 253.978 376.824 255.175 377.929 256.699C378.844 257.908 379.512 259.286 379.895 260.753C380.154 261.744 380.26 262.77 380.209 263.793C380.201 264.072 380.174 264.349 380.128 264.624C380.119 264.721 380.099 264.816 380.067 264.908C380.137 263.544 380 262.177 379.662 260.854C379.268 259.417 378.597 258.071 377.685 256.892C376.599 255.424 375.144 254.27 373.467 253.547C371.79 252.824 369.952 252.558 368.139 252.777C366.657 252.928 365.218 253.365 363.902 254.064C362.694 254.723 361.596 255.568 360.649 256.567Z" fill="#263238"/>
<path d="M358.814 244.841C358.751 244.36 358.751 243.873 358.814 243.392C358.846 242.215 359.044 241.048 359.402 239.926C359.769 238.792 360.414 237.768 361.277 236.946C361.616 236.585 362.042 236.316 362.514 236.166C362.514 236.166 362.047 236.48 361.439 237.109C360.657 237.946 360.068 238.946 359.716 240.037C359.374 241.135 359.149 242.267 359.048 243.412C359.016 243.895 358.938 244.374 358.814 244.841Z" fill="#263238"/>
<path d="M371.483 262.425C372.108 261.682 372.785 260.984 373.51 260.337C374.164 259.61 374.873 258.933 375.628 258.311C375.124 259.16 374.488 259.923 373.743 260.571C373.09 261.302 372.327 261.927 371.483 262.425Z" fill="#263238"/>
<path d="M369.04 261.158C369.054 260.418 369.174 259.684 369.395 258.979C369.526 258.252 369.754 257.546 370.074 256.881C370.072 257.621 369.952 258.357 369.719 259.06C369.6 259.789 369.371 260.496 369.04 261.158Z" fill="#263238"/>
<path d="M362.564 258.716C363.111 259.301 363.535 259.991 363.811 260.743C364.181 261.437 364.409 262.199 364.48 262.982C364.085 262.309 363.746 261.604 363.466 260.874C363.104 260.182 362.803 259.46 362.564 258.716Z" fill="#263238"/>
<path d="M369.578 248.49C370.465 246.923 371.548 245.476 372.8 244.183C372.404 244.986 371.907 245.735 371.321 246.412C370.83 247.176 370.245 247.874 369.578 248.49Z" fill="#263238"/>
<path d="M368.027 241.638C368.496 240.67 369.06 239.75 369.709 238.892C370.269 237.977 370.921 237.121 371.655 236.338C371.197 237.31 370.636 238.231 369.983 239.084C369.421 240.001 368.766 240.857 368.027 241.638Z" fill="#263238"/>
<path d="M365.605 243.432C365.811 244.188 365.913 244.969 365.909 245.752C366.019 246.529 366.019 247.317 365.909 248.094C365.696 247.339 365.593 246.557 365.605 245.773C365.489 244.997 365.489 244.208 365.605 243.432Z" fill="#263238"/>
<path d="M355.714 246.554C356.815 246.948 357.861 247.483 358.825 248.145C359.852 248.699 360.805 249.38 361.663 250.172C360.614 249.651 359.599 249.065 358.622 248.418C357.615 247.858 356.643 247.235 355.714 246.554Z" fill="#263238"/>
<g opacity="0.3">
<path d="M363.578 252.452C364.671 251.875 365.889 251.573 367.125 251.571C367.758 251.473 368.404 251.513 369.019 251.688C369.635 251.863 370.206 252.168 370.692 252.584C367.451 252.392 364.251 253.39 361.693 255.391C361.731 254.781 361.924 254.191 362.254 253.677C362.584 253.163 363.039 252.741 363.578 252.452Z" fill="black"/>
</g>
<path d="M374.017 209.43C374.644 209.256 375.303 209.229 375.942 209.349C375.203 209.107 374.516 208.729 373.915 208.234C373.692 208.052 373.459 207.778 373.561 207.504C373.662 207.231 374.027 207.19 374.321 207.211C375.121 207.28 375.889 207.555 376.55 208.011C375.961 207.416 375.526 206.685 375.284 205.883C375.251 205.819 375.233 205.747 375.233 205.675C375.233 205.603 375.251 205.532 375.284 205.467C375.385 205.325 375.598 205.346 375.76 205.396C376.416 205.577 377.014 205.925 377.496 206.407C377.977 206.888 378.325 207.487 378.506 208.143V208.558C378.158 209.416 377.5 210.111 376.662 210.504C375.823 210.893 374.87 210.958 373.986 210.687C373.662 210.575 373.287 210.332 373.317 209.987C373.348 209.643 373.713 209.511 374.017 209.43Z" fill="#FF725E"/>
<path d="M418.203 181.429C418.315 182.066 418.284 182.72 418.112 183.344C418.418 182.631 418.851 181.978 419.389 181.419C419.592 181.206 419.886 181.003 420.149 181.125C420.413 181.246 420.433 181.621 420.382 181.905C420.239 182.701 419.89 183.445 419.369 184.064C420.008 183.525 420.77 183.152 421.588 182.979C421.655 182.946 421.727 182.929 421.801 182.929C421.875 182.929 421.948 182.946 422.014 182.979C422.136 183.101 422.095 183.304 422.014 183.466C421.775 184.104 421.375 184.67 420.853 185.108C420.331 185.547 419.705 185.843 419.035 185.969H418.619C417.799 185.544 417.167 184.829 416.847 183.963C416.526 183.097 416.54 182.143 416.886 181.287C417.018 180.963 417.291 180.618 417.636 180.679C417.981 180.74 418.143 181.115 418.203 181.429Z" fill="#FF725E"/>
<path d="M387.435 238.709C387.769 238.709 388.063 238.709 388.377 238.79C388.945 232.527 387.05 226.173 388.965 220.193L388.712 220.518C386.406 220.883 384.046 220.674 381.84 219.91C380.743 219.518 379.737 218.907 378.884 218.114C378.03 217.321 377.346 216.363 376.874 215.298C376.418 214.229 376.27 213.053 376.45 211.905C376.629 210.756 377.127 209.681 377.888 208.802C380.057 206.532 383.867 206.654 386.594 208.214C389.32 209.775 391.053 212.268 392.776 214.731C393.683 214.014 394.69 213.434 395.765 213.008C392.725 208.853 389.826 204.485 388.874 199.468C387.86 193.975 389.887 187.469 394.955 185.168C399.302 183.212 404.745 184.986 407.805 188.634C408.048 188.918 408.251 189.222 408.464 189.526L408.363 189.232C409.112 187.296 410.594 185.734 412.487 184.884C413.431 184.473 414.457 184.285 415.485 184.334C416.513 184.383 417.516 184.669 418.416 185.168C419.304 185.683 420.041 186.422 420.553 187.312C421.065 188.201 421.335 189.209 421.335 190.235C421.243 191.392 420.844 192.503 420.179 193.455C419.515 194.406 418.609 195.163 417.555 195.647C415.515 196.557 413.232 196.771 411.058 196.255C411.342 198.188 411.342 200.151 411.058 202.083C410.243 206.448 408.572 210.608 406.143 214.325C406.785 214.75 407.38 215.243 407.917 215.795C411.859 219.92 412.112 226.538 410.045 231.848C407.978 237.159 402.404 241.071 398.522 245.256C400.109 248.149 401.121 251.322 401.502 254.6C402.184 253.183 403.246 251.982 404.57 251.132C405.894 250.282 407.428 249.816 409.001 249.786C410.694 249.786 412.579 250.557 413.106 252.168C413.572 253.577 412.791 255.117 411.788 256.222C410.511 257.501 408.933 258.437 407.199 258.946C405.465 259.454 403.631 259.517 401.866 259.13V258.117C401.996 260.483 401.939 262.855 401.694 265.211H376.662C376.662 265.211 369.983 238.101 387.435 238.709Z" fill="#455A64"/>
<path d="M348.011 275.701H407.156V265.222H348.011V275.701Z" fill="#FF725E"/>
<path d="M402.738 273.623L395.553 304.939H360.294L352.43 273.623H402.738Z" fill="#FF725E"/>
<path d="M348.042 275.711C348.042 275.822 361.389 275.924 377.837 275.924C394.286 275.924 407.633 275.822 407.633 275.711C407.633 275.599 394.296 275.498 377.837 275.498C361.379 275.498 348.042 275.599 348.042 275.711Z" fill="#263238"/>
<path d="M382.834 239.743C382.938 239.662 383.054 239.597 383.178 239.551C383.504 239.375 383.843 239.226 384.192 239.105C385.516 238.664 386.917 238.502 388.306 238.628C390.377 238.814 392.368 239.511 394.103 240.655C396.195 242.098 397.903 244.028 399.079 246.28C400.262 248.514 401.067 250.928 401.461 253.425C401.758 255.458 401.89 257.512 401.856 259.567C401.856 261.31 401.796 262.729 401.755 263.701C401.755 264.158 401.755 264.532 401.755 264.826C401.766 264.955 401.766 265.083 401.755 265.211C401.742 265.083 401.742 264.954 401.755 264.826C401.755 264.532 401.755 264.158 401.755 263.701C401.755 262.688 401.755 261.279 401.755 259.567C401.751 257.531 401.595 255.498 401.289 253.486C400.883 251.029 400.082 248.653 398.917 246.452C397.768 244.244 396.103 242.346 394.063 240.919C392.372 239.799 390.435 239.103 388.418 238.892C387.056 238.751 385.679 238.874 384.364 239.257C383.29 239.51 382.834 239.784 382.834 239.743Z" fill="#263238"/>
<path d="M388.083 226.477C388.072 226.376 388.072 226.274 388.083 226.173C388.083 225.98 388.083 225.697 388.083 225.322C388.089 224.267 388.214 223.216 388.458 222.19C388.798 220.657 389.384 219.189 390.191 217.842C390.661 217.044 391.223 216.302 391.864 215.633C392.55 214.904 393.339 214.28 394.205 213.778C395.079 213.284 396.021 212.921 397.002 212.704C397.912 212.523 398.841 212.455 399.769 212.501C401.339 212.596 402.881 212.96 404.329 213.576C405.3 213.985 406.227 214.491 407.096 215.086C407.4 215.288 407.623 215.481 407.775 215.592C407.927 215.704 408.008 215.785 407.998 215.795C407.988 215.805 407.653 215.582 406.984 215.197C406.099 214.649 405.166 214.181 404.197 213.799C402.771 213.214 401.257 212.871 399.718 212.785C398.814 212.752 397.91 212.824 397.022 212.998C396.083 213.207 395.179 213.548 394.336 214.011C393.493 214.49 392.727 215.095 392.066 215.805C391.436 216.456 390.882 217.177 390.414 217.954C389.609 219.266 389.011 220.695 388.641 222.19C388.387 223.186 388.231 224.204 388.175 225.23C388.104 226.061 388.114 226.467 388.083 226.477Z" fill="#263238"/>
<path d="M411.322 200.026C411.194 199.357 411.122 198.679 411.109 197.999C411.109 197.381 410.998 196.641 410.866 195.84C410.736 194.966 410.497 194.112 410.157 193.296C409.53 191.813 408.766 190.392 407.876 189.05C407.187 188.037 406.67 187.449 406.711 187.408C406.863 187.51 406.999 187.633 407.116 187.773C407.457 188.135 407.776 188.517 408.069 188.918C409.03 190.239 409.833 191.667 410.461 193.175C410.816 194.01 411.055 194.89 411.17 195.79C411.275 196.515 411.333 197.246 411.342 197.979C411.396 198.66 411.389 199.345 411.322 200.026Z" fill="#263238"/>
<path d="M408.099 256.232C408.728 256.561 409.302 256.985 409.802 257.489C410.369 257.917 410.871 258.426 411.292 258.999C410.659 258.672 410.081 258.248 409.579 257.742C409.013 257.316 408.514 256.807 408.099 256.232Z" fill="#263238"/>
<path d="M410.197 254.144C410.879 253.91 411.594 253.783 412.315 253.769C413.027 253.655 413.752 253.655 414.464 253.769C413.07 254.117 411.632 254.257 410.197 254.185V254.144Z" fill="#263238"/>
<path d="M408.606 250.455C408.95 249.873 409.347 249.324 409.791 248.814C410.147 248.236 410.547 247.687 410.987 247.172C410.831 247.848 410.515 248.477 410.065 249.006C409.699 249.597 409.199 250.094 408.606 250.455Z" fill="#263238"/>
<path d="M405.809 248.764C405.786 249.584 405.656 250.399 405.424 251.186C405.294 251.996 405.052 252.784 404.704 253.527C404.734 252.706 404.867 251.892 405.099 251.105C405.223 250.295 405.462 249.506 405.809 248.764Z" fill="#263238"/>
<path d="M403.934 257.216C403.873 257.145 404.268 256.689 404.816 256.202C405.363 255.716 405.829 255.361 405.92 255.432C406.011 255.503 405.586 255.959 405.039 256.445C404.491 256.932 403.995 257.276 403.934 257.216Z" fill="#263238"/>
<path d="M395.239 255.574C395.512 255.06 395.876 254.6 396.313 254.216C396.972 253.527 397.559 253.03 397.63 253.091C397.357 253.605 396.993 254.065 396.556 254.449C395.897 255.138 395.309 255.635 395.239 255.574Z" fill="#263238"/>
<path d="M393.354 247.547C393.795 246.429 394.434 245.4 395.239 244.507C394.803 245.628 394.164 246.659 393.354 247.547Z" fill="#263238"/>
<path d="M387.82 241.01C388.064 242.392 388.091 243.804 387.901 245.195C387.725 244.514 387.66 243.809 387.708 243.108C387.635 242.407 387.672 241.699 387.82 241.01Z" fill="#263238"/>
<path d="M376.206 243.229C376.809 243.824 377.361 244.469 377.858 245.155C378.443 245.783 378.972 246.461 379.439 247.182C378.726 246.705 378.104 246.105 377.604 245.408C377.013 244.771 376.539 244.033 376.206 243.229Z" fill="#263238"/>
<path d="M374.726 254.631C375.409 254.612 376.092 254.69 376.753 254.864C377.454 254.941 378.138 255.129 378.78 255.421C378.096 255.452 377.412 255.373 376.753 255.188C376.051 255.113 375.367 254.925 374.726 254.631Z" fill="#263238"/>
<path d="M386.766 258.614C387.088 257.017 387.83 255.534 388.914 254.317C388.615 255.061 388.256 255.78 387.84 256.466C387.535 257.207 387.176 257.926 386.766 258.614Z" fill="#263238"/>
<path d="M382.753 253.141C382.51 252.028 382.482 250.879 382.671 249.756C382.847 250.302 382.916 250.876 382.874 251.448C382.945 252.015 382.904 252.59 382.753 253.141Z" fill="#263238"/>
<path d="M395.715 262.789C395.798 262.152 396.038 261.546 396.414 261.026C396.704 260.45 397.137 259.958 397.671 259.597C397.385 260.161 397.045 260.698 396.657 261.198C396.391 261.755 396.076 262.288 395.715 262.789Z" fill="#263238"/>
<path d="M381.962 263.58C381.572 263.095 381.267 262.546 381.06 261.959C380.758 261.412 380.559 260.814 380.472 260.195C381.164 261.227 381.668 262.373 381.962 263.58Z" fill="#263238"/>
<path d="M403.336 238.101C404.091 237.962 404.862 237.932 405.626 238.01C406.394 237.979 407.162 238.061 407.907 238.253C406.384 238.426 404.844 238.375 403.336 238.101Z" fill="#263238"/>
<path d="M408.322 229.609C409.718 228.346 411.259 227.254 412.913 226.355C412.252 227.027 411.513 227.619 410.714 228.119C409.981 228.712 409.177 229.212 408.322 229.609Z" fill="#263238"/>
<path d="M407.805 218.653C408.37 218.209 408.97 217.812 409.599 217.467C410.166 217.023 410.765 216.623 411.393 216.271C410.473 217.418 409.219 218.25 407.805 218.653Z" fill="#263238"/>
<path d="M402.221 214.792C402.275 213.887 402.438 212.992 402.707 212.127C402.871 211.233 403.139 210.362 403.508 209.532C403.461 210.437 403.301 211.332 403.032 212.198C402.866 213.092 402.594 213.963 402.221 214.792Z" fill="#263238"/>
<path d="M392.887 212.015C393.337 212.483 393.703 213.025 393.972 213.616C394.332 214.159 394.599 214.759 394.762 215.389C394.31 214.919 393.943 214.374 393.678 213.778C393.317 213.239 393.05 212.643 392.887 212.015Z" fill="#263238"/>
<path d="M384.86 230.511C385.732 231 386.578 231.534 387.394 232.112C388.793 232.973 389.999 233.561 389.958 233.652C388.979 233.399 388.052 232.973 387.222 232.396C386.334 231.905 385.536 231.267 384.86 230.511Z" fill="#263238"/>
<path d="M397.883 234.666C398.347 234.184 398.888 233.783 399.485 233.48C400.023 233.086 400.622 232.782 401.258 232.578C400.794 233.06 400.253 233.461 399.657 233.764C399.119 234.16 398.52 234.465 397.883 234.666Z" fill="#263238"/>
<path d="M400.062 225.819C400.002 225.748 400.843 224.917 401.623 223.711C402.404 222.505 402.839 221.4 402.931 221.441C402.804 222.33 402.455 223.174 401.917 223.893C401.47 224.68 400.832 225.342 400.062 225.819Z" fill="#263238"/>
<path d="M395.785 223.821C395.654 223.116 395.63 222.395 395.715 221.683C395.696 220.964 395.785 220.247 395.978 219.555C396.11 220.26 396.134 220.981 396.049 221.693C396.072 222.412 395.984 223.13 395.785 223.821Z" fill="#263238"/>
<path d="M393.414 232.569C393.171 231.87 393.031 231.139 392.998 230.4C392.858 229.672 392.828 228.927 392.907 228.19C393.157 228.888 393.3 229.619 393.333 230.359C393.467 231.088 393.494 231.832 393.414 232.569Z" fill="#263238"/>
<path d="M386.807 206.229C387.084 207.028 387.314 207.844 387.496 208.671C387.786 209.471 388.02 210.291 388.195 211.124C387.712 210.407 387.369 209.606 387.182 208.762C386.889 207.951 386.762 207.09 386.807 206.229Z" fill="#263238"/>
<path d="M382.145 221.582C382.744 221.067 383.381 220.596 384.05 220.174C384.661 219.67 385.304 219.206 385.975 218.785C385.523 219.453 384.937 220.02 384.253 220.447C383.634 220.964 382.917 221.35 382.145 221.582Z" fill="#263238"/>
<path d="M375.81 216.869C376.573 216.648 377.353 216.489 378.141 216.393C378.909 216.19 379.692 216.051 380.482 215.978C379.777 216.37 379.003 216.621 378.202 216.717C377.422 216.918 376.61 216.97 375.81 216.869Z" fill="#263238"/>
<path d="M381.972 211.599C382.023 211.518 382.621 211.812 383.31 212.258C383.999 212.704 384.506 213.109 384.455 213.191C384.404 213.272 383.817 212.978 383.128 212.532C382.438 212.086 381.922 211.68 381.972 211.599Z" fill="#263238"/>
<path d="M378.901 205.914C380.047 206.581 380.941 207.607 381.445 208.833C380.971 208.392 380.54 207.907 380.158 207.384C379.697 206.932 379.276 206.44 378.901 205.914Z" fill="#263238"/>
<path d="M374.726 211.336C375.461 211.445 376.184 211.625 376.885 211.873C377.611 212.009 378.324 212.213 379.013 212.481C378.261 212.537 377.505 212.437 376.793 212.187C376.054 212.046 375.351 211.756 374.726 211.336Z" fill="#263238"/>
<path d="M403.741 204.039C404.315 203.045 404.944 202.084 405.626 201.161C406.211 200.171 406.854 199.216 407.552 198.303C407.144 199.385 406.591 200.408 405.91 201.343C405.306 202.331 404.577 203.238 403.741 204.039Z" fill="#263238"/>
<path d="M401.877 197.401C401.819 196.57 401.87 195.735 402.029 194.918C402.086 194.089 402.253 193.271 402.525 192.485C402.582 193.317 402.528 194.152 402.363 194.968C402.307 195.797 402.143 196.614 401.877 197.401Z" fill="#263238"/>
<path d="M395.421 198.435C395.522 198.435 395.796 199.691 396.434 201.151C397.073 202.61 397.802 203.694 397.721 203.745C397.01 203.054 396.463 202.213 396.12 201.282C395.683 200.395 395.444 199.423 395.421 198.435Z" fill="#263238"/>
<path d="M387.901 200.036C387.972 199.975 388.914 201.049 390.222 202.316C391.529 203.583 392.684 204.414 392.634 204.495C391.647 204.003 390.752 203.345 389.989 202.549C389.15 201.84 388.444 200.99 387.901 200.036Z" fill="#263238"/>
<path d="M390.779 186.273C390.871 186.273 391.164 187.662 391.691 189.314C392.218 190.966 392.705 192.354 392.705 192.354C391.614 190.5 390.969 188.419 390.82 186.273H390.779Z" fill="#263238"/>
<path d="M399.505 181.753C399.823 183.371 399.925 185.024 399.809 186.668C399.595 185.868 399.489 185.044 399.495 184.216C399.391 183.398 399.394 182.57 399.505 181.753Z" fill="#263238"/>
<path d="M417.524 193.387C418.152 193.371 418.78 193.415 419.399 193.519C420.028 193.521 420.655 193.579 421.274 193.691C420.667 193.907 420.014 193.963 419.379 193.853C418.731 193.855 418.094 193.694 417.524 193.387Z" fill="#263238"/>
<path d="M416.997 188.847C417.793 188.23 418.657 187.707 419.572 187.286C420.435 186.766 421.353 186.341 422.308 186.02C421.506 186.632 420.639 187.155 419.724 187.58C418.864 188.101 417.95 188.526 416.997 188.847Z" fill="#263238"/>
<path d="M412.123 189.01C412.192 188.214 412.376 187.432 412.67 186.689C412.855 185.915 413.148 185.171 413.541 184.479C413.467 185.271 413.283 186.049 412.994 186.79C412.8 187.564 412.507 188.31 412.123 189.01Z" fill="#263238"/>
<g opacity="0.3">
<path d="M398.481 245.276C398.43 244.075 398.102 242.901 397.524 241.847C396.946 240.792 396.132 239.885 395.147 239.195C393.181 237.878 389.634 237.746 388.235 238.739C390.43 238.789 392.554 239.519 394.316 240.827C395.97 242.06 397.388 243.581 398.502 245.317" fill="black"/>
</g>
<g opacity="0.3">
<path d="M406.143 214.793C405.692 213.849 405.028 213.022 404.203 212.379C403.378 211.735 402.415 211.292 401.39 211.083C399.363 210.719 396.505 211.843 395.745 213.11C397.501 212.4 399.433 212.248 401.279 212.675C403.017 213.075 404.666 213.793 406.143 214.793Z" fill="black"/>
</g>
<g opacity="0.3">
<path d="M411.291 196.631C411.687 195.938 411.922 195.164 411.978 194.367C412.034 193.571 411.91 192.772 411.616 192.03C411.325 191.353 410.873 190.758 410.299 190.297C409.724 189.836 409.046 189.522 408.322 189.385C409.987 191.496 411.004 194.045 411.251 196.722" fill="black"/>
</g>
<path d="M379.733 241.142C379.733 241.142 379.469 241.385 379.064 241.871C378.484 242.556 377.978 243.3 377.554 244.091C376.307 246.787 375.569 249.69 375.375 252.654C375.186 255.621 375.336 258.6 375.821 261.532C375.993 262.657 376.165 263.559 376.277 264.198C376.364 264.529 376.415 264.869 376.429 265.211C376.307 264.902 376.212 264.584 376.145 264.259C375.983 263.64 375.77 262.738 375.567 261.603C375.001 258.656 374.813 255.649 375.01 252.654C375.205 249.646 375.99 246.705 377.321 244C377.775 243.207 378.323 242.473 378.952 241.81C379.172 241.545 379.436 241.319 379.733 241.142Z" fill="#263238"/>
<path d="M407.157 265.212H406.974H406.447H404.42L396.961 265.262L372.334 265.313L348.011 265.262L348.133 265.141C348.133 268.363 348.133 270.988 348.133 272.823C348.133 273.715 348.133 274.414 348.133 274.91C348.133 275.133 348.133 275.316 348.133 275.458C348.133 275.6 348.133 275.64 348.133 275.64C348.128 275.579 348.128 275.518 348.133 275.458C348.133 275.316 348.133 275.133 348.133 274.91C348.133 274.414 348.133 273.715 348.133 272.823C348.133 270.988 348.133 268.374 348.052 265.141V265.029H348.173L372.496 264.979L397.123 265.029L404.583 265.08H406.609H407.136L407.157 265.212Z" fill="#263238"/>
<path d="M387.182 292.494V305.487H331.34C330.487 305.487 329.643 305.319 328.855 304.992C328.068 304.665 327.352 304.187 326.75 303.583C326.147 302.98 325.67 302.264 325.345 301.476C325.019 300.688 324.852 299.843 324.854 298.99C324.852 298.138 325.019 297.293 325.345 296.505C325.67 295.717 326.147 295.001 326.75 294.397C327.352 293.794 328.068 293.315 328.855 292.989C329.643 292.662 330.487 292.494 331.34 292.494" fill="#E0E0E0"/>
<path d="M368.341 295.22H387.181V302.76H368.341C367.459 302.76 366.614 302.41 365.99 301.786C365.367 301.163 365.017 300.317 365.017 299.436V298.534C365.02 297.654 365.371 296.811 365.994 296.19C366.617 295.569 367.461 295.22 368.341 295.22Z" fill="#FAFAFA"/>
<path d="M411.352 283.788L402.485 304.858H408.19L412.133 293.487L411.352 283.788Z" fill="#455A64"/>
<path d="M438.584 264.796L442.06 305.051L413.065 304.939L409.842 264.796H438.584Z" fill="#455A64"/>
<path d="M435.757 267.938L438.756 301.179L416.997 301.463L414.058 267.745L435.757 267.938Z" fill="#FAFAFA"/>
<path d="M431.135 272.539L432.848 295.413H421.234L419.187 272.539H431.135Z" fill="#263238"/>
<path d="M348.934 356.22H336.387V448.515H348.934V356.22Z" fill="#455A64"/>
<path d="M446.124 355.46H433.578V448.607H446.124V355.46Z" fill="#455A64"/>
<path d="M452.012 357.324L331.705 357.547V313.006H452.012V357.324Z" fill="#455A64"/>
<path d="M452.013 357.324C452.013 357.324 452.013 357.05 452.013 356.534C452.013 356.017 452.013 355.257 452.013 354.253C452.013 352.226 452.013 349.298 452.013 345.477C452.013 337.856 451.962 326.799 451.921 313.046L452.073 313.198L331.766 313.269L331.989 313.046V313.147C331.989 328.653 331.989 343.663 331.989 357.588L331.776 357.375L417.92 357.314H443.003H449.722H451.496H449.773H443.104L418.072 357.425L331.755 357.689H331.532V312.691H331.755L452.063 312.772H452.225V312.924C452.225 326.748 452.154 337.845 452.134 345.497C452.134 349.287 452.134 352.226 452.134 354.233C452.134 355.247 452.134 355.966 452.134 356.483C452.134 357 452.013 357.324 452.013 357.324Z" fill="#263238"/>
<path d="M442.131 348.569C442.131 348.569 442.131 348.386 442.131 348.052C442.131 347.718 442.131 347.211 442.131 346.572C442.131 345.265 442.131 343.35 442.131 340.877C442.131 335.911 442.08 328.715 442.05 319.655L442.212 319.797L340.866 319.868L341.109 319.655V348.569L340.866 348.366L413.339 348.457L434.52 348.518H440.205H441.614H442.131H440.195L434.52 348.569L413.389 348.62L340.755 348.721H340.521V348.569C340.521 339.448 340.521 329.698 340.521 319.655V319.452H340.775L442.121 319.523H442.273V319.655C442.273 328.776 442.212 335.972 442.192 340.937C442.192 343.4 442.192 345.306 442.192 346.603C442.192 347.241 442.192 347.718 442.192 348.062C442.192 348.407 442.131 348.569 442.131 348.569Z" fill="#263238"/>
<path d="M344.423 344.728C344 345.457 343.459 346.111 342.822 346.663C342.276 347.31 341.629 347.864 340.907 348.305C341.323 347.577 341.861 346.926 342.498 346.379C343.045 345.727 343.695 345.169 344.423 344.728Z" fill="#263238"/>
<path d="M344.424 323.404C343.654 322.938 342.968 322.346 342.397 321.651C341.739 321.067 341.178 320.383 340.735 319.624C341.502 320.094 342.186 320.686 342.762 321.377C343.419 321.961 343.98 322.645 344.424 323.404Z" fill="#263238"/>
<path d="M442.304 319.705C441.703 320.511 440.957 321.199 440.104 321.732C439.324 322.387 438.475 322.955 437.571 323.424C438.18 322.622 438.929 321.936 439.78 321.398C440.556 320.741 441.402 320.174 442.304 319.705Z" fill="#263238"/>
<path d="M442.131 348.569C441.239 348.106 440.416 347.519 439.689 346.826C438.887 346.262 438.176 345.578 437.581 344.799C438.473 345.261 439.296 345.848 440.023 346.542C440.825 347.106 441.536 347.79 442.131 348.569Z" fill="#263238"/>
<path d="M437.56 344.738C437.56 344.738 437.56 344.606 437.56 344.353V343.279C437.56 342.265 437.56 340.907 437.56 339.093C437.56 335.434 437.51 330.124 437.479 323.405L437.621 323.536L344.869 323.618L345.103 323.405V344.738L344.869 344.525L411.059 344.627L430.537 344.677H435.787H437.155H437.621H435.848H430.649L411.221 344.728L344.869 344.829H344.626V323.232H344.869L437.621 323.313H437.773V323.435C437.773 330.185 437.712 335.526 437.692 339.194C437.692 340.998 437.692 342.397 437.692 343.35C437.692 343.806 437.692 344.16 437.692 344.414C437.692 344.667 437.56 344.738 437.56 344.738Z" fill="#263238"/>
<path d="M399.738 332.099C399.034 331.661 398.274 331.32 397.478 331.086C396.756 330.866 396.004 330.757 395.249 330.762H389.056C387.245 330.733 385.487 331.376 384.121 332.566C383.836 332.81 383.587 333.094 383.381 333.407C383.091 333.842 382.957 334.362 383.001 334.883C383.046 335.404 383.265 335.895 383.624 336.275C384.415 336.984 386.046 336.64 386.178 335.616C386.209 335.961 386.307 336.296 386.467 336.603C386.627 336.91 386.846 337.182 387.112 337.404C387.377 337.626 387.684 337.794 388.014 337.897C388.344 338.001 388.691 338.039 389.036 338.008C389.731 337.936 390.39 337.661 390.931 337.218C391.471 336.775 391.87 336.183 392.076 335.515C392.106 336.106 392.35 336.666 392.762 337.091C393.174 337.516 393.726 337.777 394.316 337.825C394.909 337.858 395.494 337.678 395.966 337.317C396.438 336.957 396.766 336.44 396.89 335.859C397.65 336.802 398.786 337.684 400.093 337.278C400.452 337.162 400.776 336.957 401.034 336.683C401.293 336.408 401.478 336.073 401.573 335.707C401.683 334.99 401.566 334.255 401.237 333.608C400.908 332.96 400.383 332.433 399.738 332.099Z" fill="#E0E0E0"/>
<path d="M390.161 330.771C389.215 331.387 388.359 332.13 387.617 332.981C386.997 333.896 386.512 334.896 386.178 335.95C386.127 335.95 386.087 335.555 386.178 334.937C386.349 334.132 386.695 333.374 387.191 332.717C387.704 332.054 388.35 331.505 389.087 331.106C389.408 330.899 389.779 330.783 390.161 330.771Z" fill="#263238"/>
<path d="M392.532 331.016C392.676 331.786 392.676 332.576 392.532 333.347C392.513 334.133 392.352 334.909 392.056 335.637C391.911 334.867 391.911 334.076 392.056 333.306C392.068 332.519 392.23 331.742 392.532 331.016Z" fill="#263238"/>
<path d="M395.522 330.954C395.522 330.904 395.867 331.025 396.232 331.41C396.693 331.917 396.996 332.548 397.103 333.224C397.204 333.872 397.204 334.532 397.103 335.18C397.022 335.667 396.941 335.961 396.88 335.961C396.819 335.961 396.799 335.647 396.789 335.16C396.793 334.536 396.749 333.913 396.657 333.295C396.547 332.687 396.312 332.107 395.968 331.593C395.715 331.197 395.482 331.005 395.522 330.954Z" fill="#263238"/>
<path d="M459.228 304.949H323.07V315.672H459.228V304.949Z" fill="#455A64"/>
<path d="M459.228 315.662C459.228 315.662 459.228 315.419 459.228 314.963C459.228 314.507 459.228 313.807 459.228 312.936C459.228 311.122 459.228 308.456 459.228 304.98L459.309 305.061L323.039 305.173L323.262 304.95V315.662L323.039 315.439L419.622 315.53L448.587 315.601H456.441H458.468H459.177H458.498H456.472H448.668L419.754 315.672L323.009 315.763H322.786V304.615H323.039L459.188 304.757H459.269V304.99C459.269 308.487 459.269 311.172 459.269 312.997C459.269 313.878 459.269 314.557 459.269 315.023C459.269 315.49 459.228 315.662 459.228 315.662Z" fill="#263238"/>
<path d="M152.205 94.8675C166.912 90.8909 175.611 75.7445 171.635 61.0371C167.658 46.3297 152.512 37.6307 137.804 41.6073C123.097 45.5839 114.398 60.7303 118.375 75.4377C122.351 90.1451 137.498 98.8442 152.205 94.8675Z" fill="white"/>
<path d="M165.882 50.1963L165.557 49.8922L164.625 48.9599L163.956 48.2707C163.692 48.0275 163.388 47.7944 163.064 47.5208C162.344 46.8718 161.574 46.2789 160.764 45.7472C158.589 44.2224 156.198 43.0335 153.669 42.2204C150.328 41.1288 146.809 40.685 143.302 40.913C138.734 41.1967 134.312 42.6257 130.442 45.0681C126.572 47.5105 123.379 50.8877 121.158 54.8886C120.521 56.0217 119.963 57.1966 119.485 58.4053C119.252 59.0235 119.07 59.6519 118.867 60.2903C118.646 60.9208 118.477 61.5682 118.36 62.226C118.062 63.562 117.852 64.9162 117.732 66.2799C117.646 67.6602 117.646 69.0446 117.732 70.4249C117.937 73.2631 118.601 76.0492 119.698 78.6745C121.933 84.1367 125.89 88.72 130.968 91.7279C133.409 93.1943 136.072 94.2553 138.853 94.8696C140.187 95.1784 141.542 95.3951 142.906 95.5182C144.256 95.6086 145.61 95.6086 146.96 95.5182C147.64 95.4954 148.317 95.4243 148.987 95.3054C149.646 95.1838 150.305 95.1027 150.943 94.9608C152.211 94.6651 153.457 94.2824 154.673 93.8156C160.615 91.5429 165.583 87.2757 168.725 81.7442C171.868 76.2127 172.991 69.7609 171.901 63.4929C171.471 60.8729 170.644 58.3338 169.449 55.9629C169.041 55.0834 168.567 54.2364 168.03 53.4292C167.807 53.0745 167.615 52.7401 167.412 52.4158L166.966 51.6253L166.175 50.6118C166.083 50.4956 165.999 50.3737 165.922 50.247C166.032 50.3473 166.131 50.4595 166.216 50.5814L167.047 51.5949L167.655 52.3448C167.868 52.6387 168.06 52.9732 168.294 53.3583C168.851 54.1585 169.342 55.0024 169.763 55.8818C171.003 58.2579 171.868 60.8116 172.327 63.4523C173.028 67.3279 172.897 71.3082 171.943 75.1294C170.989 78.9506 169.234 82.5254 166.794 85.6167C163.668 89.4765 159.572 92.4356 154.926 94.1906C153.69 94.6674 152.424 95.0602 151.136 95.3662C150.477 95.5081 149.808 95.5993 149.109 95.7209C148.439 95.8407 147.762 95.9152 147.082 95.9439C144.29 96.2018 141.474 95.9929 138.751 95.3256C135.921 94.6977 133.21 93.6163 130.725 92.1231C125.54 89.0699 121.502 84.3983 119.232 78.8265C118.105 76.1508 117.421 73.3099 117.205 70.4148C117.114 69.0076 117.114 67.5959 117.205 66.1887C117.331 64.8251 117.544 63.471 117.844 62.1348C117.969 61.4648 118.142 60.8044 118.36 60.1586C118.583 59.5201 118.766 58.8715 118.999 58.2432C119.502 57.0141 120.084 55.819 120.742 54.6656C123.182 50.3303 126.737 46.7263 131.039 44.227C134.451 42.251 138.245 41.0256 142.169 40.6324C146.092 40.2391 150.054 40.6872 153.791 41.9467C156.324 42.7801 158.716 43.9932 160.885 45.5445C161.687 46.0978 162.45 46.7074 163.165 47.3687C163.49 47.6525 163.794 47.8957 164.047 48.1491L164.706 48.8585L165.598 49.872C165.702 49.9713 165.797 50.0798 165.882 50.1963Z" fill="#263238"/>
<path d="M137.515 60.5236H141.883C141.88 60.027 141.977 59.5349 142.168 59.0765C142.359 58.618 142.64 58.2026 142.994 57.8547C143.349 57.5069 143.769 57.2338 144.231 57.0516C144.693 56.8694 145.187 56.7818 145.683 56.794C146.418 56.764 147.143 56.9649 147.758 57.3684C148.372 57.772 148.845 58.3579 149.109 59.0439C149.342 59.6177 149.435 60.2386 149.38 60.8554C149.325 61.4722 149.125 62.0671 148.795 62.591C148.055 63.8072 146.433 64.922 143.484 64.4051V74.256H147.812V68.4792C149.589 67.9635 151.147 66.8773 152.246 65.3883C153.345 63.8993 153.923 62.0901 153.892 60.2398C153.892 53.8449 148.156 52.3652 145.704 52.3652C143.819 52.3652 137.434 52.8213 137.515 60.5236Z" fill="#FF725E"/>
<path d="M147.872 76.2822H143.484V80.3766H147.872V76.2822Z" fill="#FF725E"/>
<path d="M182.735 81.1573C182.735 81.8208 182.539 82.4693 182.17 83.021C181.802 83.5726 181.278 84.0026 180.665 84.2565C180.052 84.5104 179.377 84.5768 178.726 84.4474C178.076 84.3179 177.478 83.9984 177.009 83.5293C176.54 83.0602 176.22 82.4624 176.091 81.8117C175.961 81.161 176.028 80.4865 176.282 79.8736C176.536 79.2606 176.966 78.7367 177.517 78.3681C178.069 77.9995 178.717 77.8027 179.381 77.8027C180.271 77.8027 181.124 78.1562 181.753 78.7853C182.382 79.4144 182.735 80.2676 182.735 81.1573Z" fill="white"/>
<path d="M182.735 81.157C182.653 80.894 182.586 80.6268 182.533 80.3564C182.316 79.6642 181.883 79.0601 181.296 78.6335C180.872 78.3281 180.379 78.1323 179.861 78.0633C179.343 77.9943 178.816 78.0545 178.327 78.2383C177.73 78.4586 177.215 78.8565 176.852 79.3783C176.488 79.9002 176.293 80.521 176.293 81.157C176.293 81.7931 176.488 82.4139 176.852 82.9358C177.215 83.4576 177.73 83.8555 178.327 84.0758C178.817 84.2573 179.344 84.3153 179.862 84.2446C180.38 84.1739 180.873 83.9767 181.296 83.6704C181.883 83.2439 182.316 82.6398 182.533 81.9475C182.685 81.4509 182.685 81.1469 182.735 81.157C182.786 81.1672 182.827 81.4509 182.735 81.9982C182.585 82.7757 182.161 83.4734 181.54 83.9643C181.072 84.335 180.518 84.5814 179.93 84.6807C179.342 84.7799 178.738 84.7287 178.175 84.5319C177.476 84.2861 176.871 83.8294 176.443 83.2249C176.014 82.6204 175.784 81.8978 175.784 81.157C175.784 80.4163 176.014 79.6937 176.443 79.0892C176.871 78.4847 177.476 78.028 178.175 77.7822C178.737 77.5811 179.341 77.5268 179.93 77.6243C180.518 77.7218 181.072 77.9681 181.54 78.3396C182.161 78.8305 182.585 79.5282 182.735 80.3057C182.816 80.5837 182.816 80.8791 182.735 81.157Z" fill="#263238"/>
<path d="M283.129 77.8539L292.341 77.3168C297.769 82.3726 304.893 85.215 312.311 85.2854C319.729 85.3558 326.904 82.649 332.428 77.6972C337.951 72.7453 341.423 65.9065 342.16 58.525C342.897 51.1435 340.847 43.7532 336.412 37.8068C331.977 31.8604 325.478 27.7879 318.192 26.3899C310.907 24.9919 303.362 26.3695 297.041 30.2519C290.72 34.1343 286.08 40.2406 284.032 47.3707C281.985 54.5007 282.678 62.1388 285.976 68.7835L283.129 77.8539Z" fill="white"/>
<path d="M283.129 77.8535C283.129 77.8535 283.179 77.661 283.291 77.2759L283.818 75.5429C284.294 73.9923 284.983 71.712 285.895 68.7425V68.6209L285.987 68.7223L285.855 68.8033C283.642 64.3879 282.566 59.4904 282.723 54.5541C282.767 53.0159 282.936 51.4838 283.23 49.9733C283.561 48.3576 284.011 46.7689 284.578 45.2202C287.225 38.002 292.58 32.0987 299.506 28.7616C303.387 26.862 307.632 25.8248 311.951 25.7212C316.544 25.6336 321.093 26.6191 325.238 28.5994C329.601 30.6363 333.393 33.721 336.275 37.5787C336.629 38.0753 337.004 38.5921 337.359 39.0583L338.301 40.6292L338.768 41.4095L339.163 42.2304C339.416 42.7777 339.68 43.325 339.943 43.8722C340.207 44.4195 340.359 44.9972 340.572 45.5546C340.796 46.1099 340.985 46.6786 341.139 47.2572C341.47 48.3982 341.727 49.5593 341.909 50.7334C342.652 55.1528 342.378 59.6835 341.106 63.9809C339.835 68.2782 337.6 72.229 334.572 75.5327C329.393 81.2461 322.199 84.7268 314.505 85.2417C312.851 85.3539 311.191 85.3335 309.539 85.1809C308.011 84.9984 306.495 84.7243 304.999 84.36C300.226 83.1167 295.839 80.6988 292.24 77.3265H292.301L285.409 77.6813L283.656 77.7725H283.078H283.686L285.46 77.6508L292.29 77.2049C295.886 80.5319 300.254 82.9109 304.999 84.1269C306.489 84.4809 307.998 84.7448 309.519 84.9174C311.155 85.0395 312.798 85.0395 314.434 84.9174C318.021 84.6676 321.531 83.7642 324.792 82.252C330.651 79.5578 335.461 75.0116 338.481 69.3141C341.501 63.6167 342.563 57.0841 341.504 50.7232C341.324 49.5663 341.071 48.4221 340.744 47.2977C340.593 46.7259 340.407 46.164 340.186 45.6154C339.974 45.058 339.801 44.4905 339.558 43.9432C339.315 43.3959 339.051 42.8689 338.788 42.3318L338.403 41.521L337.937 40.7508L337.004 39.2002C336.66 38.7036 336.295 38.1867 335.93 37.7307C333.081 33.9233 329.339 30.8746 325.035 28.8528C320.924 26.8957 316.413 25.9207 311.86 26.005C307.751 26.0888 303.704 27.0258 299.975 28.7564C296.247 30.4871 292.919 32.9737 290.203 36.0585C287.841 38.7407 285.99 41.8318 284.74 45.1796C284.207 46.7637 283.797 48.3867 283.514 50.0341C283.218 51.5311 283.042 53.0494 282.987 54.5744C282.809 59.4827 283.854 64.3582 286.027 68.7628L286.27 69.2695L285.895 68.854H286.027C285.095 71.7829 284.365 74.0429 283.879 75.5733C283.635 76.3333 283.443 76.911 283.321 77.3164L283.129 77.8535Z" fill="#263238"/>
<path d="M303.459 49.9326H307.675C307.672 49.4511 307.766 48.9739 307.951 48.5295C308.137 48.0852 308.41 47.6827 308.754 47.346C309.098 47.0093 309.507 46.7454 309.955 46.5699C310.403 46.3945 310.882 46.311 311.364 46.3246C312.074 46.2992 312.774 46.4953 313.368 46.8857C313.962 47.2761 314.42 47.8415 314.678 48.5036C314.9 49.0583 314.988 49.6575 314.935 50.2527C314.883 50.8479 314.69 51.4222 314.374 51.9291C313.654 53.1047 312.083 54.179 309.246 53.6824V63.1987H313.421V57.6247C315.135 57.1213 316.636 56.0693 317.694 54.6304C318.752 53.1914 319.309 51.4449 319.279 49.6589C319.279 43.4768 313.735 42.0479 311.364 42.0479C309.55 42.0479 303.378 42.5039 303.459 49.9326Z" fill="#FF725E"/>
<path d="M313.462 65.165H309.225V69.1277H313.462V65.165Z" fill="#FF725E"/>
<path d="M219.393 412.631L220.102 435.717C220.102 435.717 196.873 444.19 196.58 448.477L241.405 448.7L241.77 412.682L219.393 412.631Z" fill="#263238"/>
<path d="M233.966 433.842C234.397 433.976 234.763 434.264 234.995 434.651C235.227 435.038 235.308 435.497 235.223 435.94C235.106 436.367 234.832 436.734 234.457 436.969C234.081 437.204 233.631 437.288 233.196 437.206C232.74 437.063 232.353 436.756 232.109 436.344C231.866 435.933 231.784 435.446 231.878 434.977C232.051 434.537 232.386 434.181 232.814 433.981C233.242 433.781 233.731 433.753 234.179 433.903" fill="#E0E0E0"/>
<path d="M241.405 448.699L241.293 445.071L198.384 446.206C198.384 446.206 196.357 447.068 196.6 448.476L241.405 448.699Z" fill="#455A64"/>
<path d="M219.373 435.484C219.373 435.707 220.477 435.808 221.551 436.497C222.626 437.186 223.193 438.129 223.396 438.048C223.599 437.967 223.274 436.69 221.957 435.859C220.639 435.028 219.332 435.281 219.373 435.484Z" fill="white"/>
<path d="M214.66 437.409C214.609 437.612 215.562 437.997 216.301 438.919C217.041 439.842 217.244 440.835 217.467 440.825C217.69 440.814 217.822 439.578 216.889 438.443C215.957 437.308 214.67 437.196 214.66 437.409Z" fill="white"/>
<path d="M211.964 443.014C212.167 443.064 212.471 442 211.913 440.774C211.356 439.548 210.342 439.092 210.251 439.274C210.16 439.456 210.788 440.095 211.265 441.088C211.741 442.081 211.751 442.993 211.964 443.014Z" fill="white"/>
<path d="M219.798 430.204C219.889 430.407 220.893 430.113 222.129 430.204C223.365 430.295 224.328 430.68 224.44 430.498C224.551 430.315 223.639 429.484 222.18 429.484C220.72 429.484 219.666 430.032 219.798 430.204Z" fill="white"/>
<path d="M272.042 417.597L274.464 445.436L270.035 468.016C269.961 468.402 269.967 468.798 270.052 469.181C270.137 469.564 270.299 469.925 270.529 470.243C270.759 470.561 271.051 470.829 271.388 471.03C271.725 471.23 272.099 471.36 272.488 471.411C272.941 471.469 273.401 471.418 273.829 471.261C274.258 471.104 274.642 470.846 274.95 470.509C278.944 466.152 293.558 450.058 293.264 448.031C292.929 445.69 292.656 418.499 292.656 418.499L272.042 417.597Z" fill="#263238"/>
<path d="M272.488 471.411L293.142 446.155L293.223 447.331C293.286 448.353 292.988 449.364 292.382 450.189C290.74 452.378 286.088 458.347 275.031 470.509C274.713 470.856 274.315 471.119 273.872 471.276C273.428 471.434 272.953 471.48 272.488 471.411Z" fill="#455A64"/>
<g opacity="0.6">
<path d="M286.848 437.521C286.536 437.8 286.335 438.181 286.281 438.596C286.227 439.011 286.324 439.432 286.554 439.781C286.817 440.117 287.199 440.34 287.621 440.405C288.043 440.469 288.473 440.369 288.824 440.126C289.168 439.834 289.392 439.425 289.454 438.978C289.516 438.532 289.411 438.078 289.159 437.703C288.849 437.379 288.426 437.187 287.978 437.169C287.53 437.15 287.093 437.305 286.757 437.602" fill="white"/>
</g>
<path d="M278.082 458.814C277.418 457.921 276.525 457.224 275.497 456.797C274.47 456.371 273.345 456.231 272.244 456.392C272.244 456.321 272.559 456.088 273.197 455.956C274.05 455.798 274.931 455.893 275.731 456.23C276.546 456.553 277.25 457.106 277.758 457.821C278.072 458.378 278.143 458.784 278.082 458.814Z" fill="white"/>
<path d="M276.329 462.675C275.501 462.289 274.652 461.95 273.785 461.661C272.874 461.549 271.957 461.491 271.038 461.489C270.947 461.347 272.255 460.668 273.927 461.063C275.599 461.459 276.471 462.594 276.329 462.675Z" fill="white"/>
<path d="M281.487 453.786C281.366 453.928 279.906 452.611 277.666 451.912C275.427 451.212 273.481 451.405 273.471 451.212C274.913 450.835 276.434 450.877 277.854 451.333C279.273 451.789 280.534 452.64 281.487 453.786Z" fill="white"/>
<path d="M281.487 445.264C281.426 445.437 279.845 444.889 277.839 444.95C275.832 445.011 274.271 445.589 274.2 445.416C274.129 445.244 275.66 444.403 277.818 444.332C279.113 444.206 280.41 444.536 281.487 445.264Z" fill="white"/>
<path d="M280.93 437.075C279.693 436.752 278.417 436.605 277.139 436.639C275.021 436.832 273.602 437.957 273.501 437.805C273.4 437.653 273.734 437.379 274.352 436.974C275.172 436.445 276.107 436.122 277.079 436.031C278.048 435.932 279.028 436.064 279.937 436.416C280.626 436.741 280.97 437.004 280.93 437.075Z" fill="white"/>
<path d="M277.089 435.079C276.979 434.753 276.941 434.407 276.977 434.065C277.01 433.091 277.238 432.133 277.646 431.248C277.885 430.575 278.337 429.999 278.933 429.606C279.145 429.5 279.384 429.46 279.619 429.49C279.853 429.521 280.074 429.622 280.251 429.779C280.565 430.116 280.748 430.554 280.768 431.015C280.763 431.955 280.432 432.864 279.831 433.587C279.231 434.31 278.397 434.801 277.474 434.978C276.556 435.13 275.613 435.006 274.765 434.621C273.917 434.237 273.202 433.61 272.711 432.819C272.586 432.62 272.507 432.396 272.479 432.163C272.451 431.93 272.475 431.694 272.549 431.471C272.645 431.255 272.806 431.075 273.009 430.955C273.213 430.835 273.448 430.782 273.684 430.802C274.381 430.912 275.038 431.202 275.589 431.643C276.377 432.196 277.063 432.882 277.616 433.67C277.844 433.947 278.013 434.268 278.112 434.613C277.315 433.611 276.38 432.728 275.336 431.988C274.842 431.627 274.268 431.39 273.663 431.299C273.533 431.284 273.402 431.311 273.289 431.377C273.176 431.443 273.087 431.543 273.035 431.664C273 431.814 272.997 431.97 273.024 432.121C273.052 432.273 273.111 432.417 273.197 432.545C273.642 433.213 274.269 433.74 275.003 434.063C275.738 434.386 276.549 434.493 277.342 434.369C278.124 434.218 278.832 433.806 279.349 433.201C279.867 432.595 280.163 431.831 280.19 431.035C280.193 430.715 280.078 430.404 279.866 430.164C279.771 430.074 279.651 430.017 279.522 429.998C279.393 429.98 279.262 430.003 279.146 430.062C278.644 430.397 278.252 430.873 278.021 431.43C277.496 432.581 277.18 433.817 277.089 435.079Z" fill="white"/>
<path d="M196.438 221.188C194.279 230.757 193.548 240.592 194.269 250.375C194.745 256.578 215.683 428.166 215.683 428.166H243.989L236.044 266.895L238.365 267.391C238.365 267.391 253.789 336.175 255.046 347.313C256.181 357.326 270.035 436 270.035 436L296.689 435.727L286.778 334.168L277.17 241.882L273.562 215.016L196.438 221.188Z" fill="#263238"/>
<path d="M199.711 249.727C225.757 258.706 259.982 263.216 277.545 245.916L271.849 114.795H205.478L199.711 249.727Z" fill="#E0E0E0"/>
<path d="M249.827 183.021C249.928 183.132 245.337 187.429 239.581 192.618C233.824 197.807 229.091 201.942 228.99 201.831C228.889 201.719 233.48 197.422 239.236 192.233C244.992 187.044 249.725 182.909 249.827 183.021Z" fill="#263238"/>
<path opacity="0.3" d="M225.149 256.213C225.149 256.213 226.831 146.1 224.612 140.678C222.393 135.256 214.477 254.561 215.197 254.561L225.149 256.213Z" fill="black"/>
<path d="M197.654 142.604L194.33 198.131L191.897 253.871C199.103 259.374 208.913 262.243 220.619 263.175L225.189 150.478V107.285L224.379 106.737L218.784 111.561L217.507 111.703C216.605 109.859 215.197 110.548 215.197 110.548C214.964 110.121 214.576 109.802 214.112 109.656C213.703 109.61 213.29 109.668 212.909 109.823C212.528 109.979 212.193 110.228 211.933 110.548L210.92 109.453C209.248 108.977 208.305 111.034 208.305 111.034C193.681 112.656 191.695 121.25 189.414 126.702L197.654 142.604Z" fill="#FF725E"/>
<path d="M201.941 143.689C201.778 144.155 200.532 175.42 200.532 175.42C200.532 175.42 203.957 178.998 202.711 183.67C201.464 188.342 199.194 199.095 193.022 199.561C184.367 200.219 176.27 195.172 176.432 179.626C176.594 164.08 189.262 126.703 189.262 126.703L204.15 137.263L201.941 143.689Z" fill="#FF725E"/>
<path d="M251.955 105.207C251.955 105.207 257.124 108.562 258.624 111.014H262.363C263.022 110.943 263.721 110.193 264.563 110.224C265.069 110.224 265.667 111.004 266.215 111.055C266.762 111.105 267.066 110.264 267.552 110.325C268.566 110.447 269.377 111.146 270.481 111.42C274.657 112.433 279.308 113.872 281.498 115.473C287.173 119.527 289.078 126.743 289.078 126.743C289.078 126.743 273.765 143.252 274.829 144.033C275.893 144.813 275.315 186.193 275.315 186.193C275.315 186.193 280.981 249.25 279.46 251.277C277.94 253.304 262.749 262.557 248.439 261.746C248.439 261.746 247.982 253.75 249.168 234.92C250.952 206.604 250.759 196.408 251.256 186.274C252.067 169.835 251.114 138.823 251.256 133.675C251.398 129.915 251.6 105.339 251.955 105.207Z" fill="#FF725E"/>
<g opacity="0.3">
<path d="M273.106 175.684C270.583 179.894 269.557 184.833 270.196 189.699C270.834 194.565 273.099 199.073 276.623 202.49V196.064L273.582 177.163L273.106 175.684Z" fill="black"/>
</g>
<path d="M289.078 126.683C289.078 126.683 294.429 167.049 297.186 170.768C299.942 174.487 299.051 179.757 298.331 184.875C297.54 190.48 294.743 203.787 284.143 202.864C278.558 202.388 275.244 198.344 273.339 192.314C270.035 181.855 274.353 169.511 274.353 166.674C274.353 163.836 270.988 142.655 271.383 141.55C271.778 140.445 289.078 126.683 289.078 126.683Z" fill="#FF725E"/>
<path d="M224.977 133.766C224.746 133.503 224.545 133.214 224.379 132.905C223.873 132.102 223.293 131.349 222.646 130.655C222.191 130.187 221.669 129.791 221.095 129.479C220.421 129.156 219.692 128.963 218.947 128.912C217.181 128.741 215.407 129.135 213.879 130.037L213.292 130.381L213.494 129.733C213.748 128.932 214.001 128.091 214.244 127.23C215.44 122.953 216.514 119.122 217.285 116.132C217.67 114.794 217.984 113.68 218.298 112.778C218.391 112.358 218.531 111.95 218.714 111.562C218.686 111.991 218.611 112.415 218.491 112.828C218.318 113.639 218.045 114.794 217.7 116.234C216.991 119.092 215.997 123.044 214.751 127.382C214.508 128.243 214.254 129.094 213.991 129.895L213.606 129.591C217.092 127.564 221.328 128.344 222.859 130.432C223.505 131.159 224.06 131.962 224.51 132.824C224.7 133.12 224.857 133.436 224.977 133.766Z" fill="#263238"/>
<g opacity="0.3">
<path d="M254.894 129.795C256.571 129.095 258.442 129.012 260.174 129.561V129.643C260.658 130.977 260.998 132.36 261.188 133.767C258.269 132.055 254.549 131.345 251.55 132.916C252.315 131.555 253.483 130.464 254.894 129.795Z" fill="black"/>
</g>
<path d="M251.276 133.118C251.41 132.814 251.591 132.534 251.813 132.287C252.364 131.551 253.012 130.893 253.739 130.331C254.247 129.918 254.81 129.577 255.411 129.317C256.12 129.022 256.883 128.877 257.651 128.891C259.453 128.902 261.189 129.569 262.535 130.766L262.1 130.989C261.937 129.844 261.725 128.638 261.512 127.402C260.701 122.932 259.961 118.889 259.394 115.818L258.786 112.301C258.694 111.874 258.64 111.44 258.623 111.004C258.792 111.408 258.915 111.829 258.988 112.261C259.181 113.082 259.444 114.288 259.769 115.747C260.387 118.696 261.228 122.78 262.039 127.31C262.252 128.547 262.454 129.763 262.616 130.929L262.708 131.628L262.191 131.151C260.938 130.026 259.324 129.383 257.64 129.337C256.296 129.308 254.984 129.749 253.931 130.584C252.972 131.347 252.083 132.195 251.276 133.118Z" fill="#263238"/>
<g opacity="0.3">
<path d="M205.356 184.389C203.653 184.218 201.933 184.442 200.33 185.043C198.727 185.644 197.284 186.606 196.113 187.854C194.942 189.103 194.074 190.604 193.576 192.243C193.079 193.881 192.966 195.611 193.245 197.3C193.417 197.209 194.39 196.834 194.39 196.834L194.096 201.8C196.054 201.489 197.924 200.773 199.589 199.698C201.254 198.623 202.676 197.213 203.765 195.557C204.806 193.914 205.487 192.069 205.761 190.144C206.035 188.218 205.897 186.257 205.356 184.389Z" fill="black"/>
</g>
<path d="M193.022 199.591C196.237 199.212 199.174 197.585 201.201 195.061C203.288 192.46 204.664 189.363 205.194 186.071C205.863 182.362 205.589 178.257 203.501 175.207C201.414 172.156 198.302 170.829 194.897 169.603" fill="#FF725E"/>
<path d="M194.897 169.572C195.428 169.679 195.948 169.839 196.448 170.049C197.869 170.523 199.23 171.162 200.502 171.954C202.404 173.172 203.892 174.939 204.768 177.021C205.757 179.571 206.061 182.334 205.65 185.038C205.321 187.738 204.475 190.35 203.157 192.73C202.071 194.676 200.561 196.353 198.738 197.635C197.517 198.495 196.14 199.108 194.684 199.439C194.29 199.527 193.891 199.588 193.488 199.621C193.348 199.645 193.204 199.645 193.063 199.621C193.063 199.621 193.64 199.53 194.634 199.256C196.038 198.856 197.36 198.207 198.535 197.341C200.273 196.051 201.708 194.398 202.741 192.497C204.003 190.165 204.817 187.618 205.143 184.987C205.538 182.369 205.259 179.694 204.332 177.214C203.489 175.223 202.079 173.525 200.279 172.329C199.055 171.527 197.754 170.848 196.397 170.302C195.876 170.103 195.375 169.859 194.897 169.572Z" fill="#263238"/>
<path d="M197.259 135.541C197.535 136.154 197.763 136.787 197.938 137.436C198.343 138.764 198.88 140.477 199.519 142.564V142.625C199.519 145.665 199.58 149.263 199.62 153.216C199.62 158.121 199.701 162.56 199.732 165.914C199.732 167.465 199.732 168.762 199.732 169.766C199.762 170.239 199.745 170.714 199.681 171.184C199.587 170.721 199.536 170.249 199.529 169.776C199.468 168.864 199.397 167.556 199.336 165.925C199.215 162.671 199.113 158.182 199.073 153.216C199.073 149.243 199.073 145.574 199.073 142.625V142.686L197.664 137.497C197.477 136.857 197.341 136.203 197.259 135.541Z" fill="#263238"/>
<path d="M279.085 136.757C278.823 137.265 278.518 137.75 278.173 138.206L275.538 142.047V141.925C275.538 145.118 275.427 149.354 275.204 153.986C274.94 159.053 274.707 163.563 274.525 166.988C274.454 168.579 274.383 169.897 274.342 170.931C274.339 171.416 274.299 171.901 274.221 172.38C274.139 171.901 274.109 171.416 274.13 170.931C274.13 169.998 274.13 168.64 274.13 166.978C274.19 163.644 274.403 159.043 274.657 153.955C274.88 149.334 275.052 145.108 275.123 141.925V141.824L277.9 138.095C278.244 137.606 278.641 137.157 279.085 136.757Z" fill="#263238"/>
<path d="M286.311 202.855C285.741 202.896 285.169 202.896 284.599 202.855C283.034 202.723 281.507 202.311 280.089 201.639C278.017 200.536 276.288 198.885 275.092 196.865C272.323 191.865 271.172 186.129 271.799 180.447C272.088 178.151 272.688 175.904 273.582 173.769C274.181 172.335 274.943 170.975 275.852 169.715C276.098 169.364 276.362 169.025 276.643 168.701C276.825 168.478 276.937 168.367 276.947 168.387C275.749 170.117 274.73 171.964 273.907 173.9C273.073 176.022 272.521 178.243 272.265 180.508C271.705 186.077 272.828 191.687 275.487 196.612C276.622 198.575 278.264 200.196 280.241 201.304C281.609 201.992 283.081 202.447 284.599 202.652C285.174 202.67 285.747 202.737 286.311 202.855Z" fill="#263238"/>
<g opacity="0.3">
<path d="M220.923 129.227C219.25 128.524 217.383 128.438 215.653 128.983V129.075C215.163 130.408 214.823 131.791 214.639 133.199C216.111 132.351 217.772 131.885 219.47 131.846C221.169 131.807 222.85 132.196 224.358 132.976C223.716 131.345 222.492 130.009 220.923 129.227Z" fill="black"/>
</g>
<path d="M234.929 46.7412H233.794C228.273 46.9641 223.039 49.2598 219.135 53.1707C215.232 57.0815 212.946 62.32 212.734 67.8414C212.319 78.4828 211.994 88.8808 212.298 94.5765C212.927 106.353 225.027 107.508 225.027 107.508C225.027 107.508 225.027 111.562 225.027 115.069C226.285 117.211 228.048 119.013 230.163 120.316C232.278 121.619 234.68 122.384 237.159 122.544C239.638 122.704 242.119 122.255 244.384 121.234C246.648 120.213 248.629 118.653 250.151 116.69L251.6 114.866L253.394 69.7366C253.911 57.5143 247.222 46.954 234.929 46.7412Z" fill="#FFBF9D"/>
<path d="M225.027 107.671C230.486 107.441 235.763 105.647 240.229 102.502C240.229 102.502 236.905 111.512 225.098 110.944L225.027 107.671Z" fill="#FF9A6C"/>
<path d="M218.156 76.9625C218.17 77.4016 218.354 77.8182 218.67 78.1231C218.987 78.428 219.409 78.5971 219.849 78.5942C220.067 78.6025 220.285 78.5662 220.489 78.4877C220.693 78.4091 220.879 78.2899 221.035 78.1373C221.192 77.9847 221.315 77.8018 221.399 77.5999C221.482 77.3979 221.524 77.1811 221.521 76.9625C221.51 76.5226 221.327 76.1045 221.01 75.7991C220.693 75.4936 220.269 75.3254 219.829 75.3309C219.61 75.324 219.393 75.3613 219.19 75.4404C218.987 75.5194 218.801 75.6387 218.645 75.791C218.489 75.9434 218.365 76.1256 218.281 76.3269C218.197 76.5282 218.155 76.7444 218.156 76.9625Z" fill="#263238"/>
<path d="M215.45 72.9893C215.673 73.2021 216.91 72.1988 218.714 72.1279C220.518 72.0569 221.896 72.9082 222.078 72.6853C222.261 72.4623 221.946 72.1887 221.349 71.7934C220.541 71.2837 219.596 71.0359 218.643 71.084C217.702 71.1188 216.797 71.4525 216.058 72.0367C215.521 72.4927 215.349 72.9082 215.45 72.9893Z" fill="#263238"/>
<path d="M234.868 76.7192C234.879 77.1592 235.062 77.5772 235.379 77.8827C235.696 78.1881 236.121 78.3564 236.561 78.3509C236.775 78.3577 236.989 78.3217 237.19 78.2451C237.39 78.1686 237.574 78.0529 237.729 77.9049C237.885 77.7569 238.01 77.5794 238.096 77.3828C238.182 77.1863 238.229 76.9745 238.233 76.7598C238.217 76.3215 238.032 75.9065 237.716 75.6021C237.4 75.2978 236.979 75.1278 236.54 75.1281C236.325 75.12 236.111 75.155 235.91 75.231C235.709 75.3071 235.525 75.4227 235.369 75.571C235.213 75.7193 235.088 75.8973 235.002 76.0945C234.916 76.2917 234.871 76.5041 234.868 76.7192Z" fill="#263238"/>
<path d="M233.226 72.6755C233.449 72.8884 234.686 71.885 236.49 71.8141C238.294 71.7432 239.672 72.5945 239.854 72.3715C240.037 72.1485 239.723 71.8749 239.125 71.4797C238.317 70.9711 237.372 70.7235 236.419 70.7702C235.478 70.805 234.573 71.1387 233.834 71.7229C233.297 72.1789 233.115 72.5843 233.226 72.6755Z" fill="#263238"/>
<path d="M227.308 86.8643C226.34 86.5988 225.342 86.4592 224.338 86.4488C223.872 86.4488 223.436 86.3474 223.325 86.0332C223.267 85.5587 223.356 85.0779 223.578 84.6549L224.794 81.0774C226.487 76.0101 227.693 71.8043 227.49 71.7333C227.287 71.6624 225.747 75.7872 224.055 80.8545C223.649 82.1111 223.254 83.307 222.889 84.4522C222.619 85.0214 222.561 85.6686 222.727 86.2765C222.799 86.4368 222.907 86.5786 223.042 86.691C223.177 86.8034 223.336 86.8835 223.507 86.9251C223.766 86.9855 224.032 87.0094 224.298 86.996C225.303 87.0805 226.314 87.0362 227.308 86.8643Z" fill="#263238"/>
<path d="M233.693 63.6656C233.885 64.1521 235.72 63.8481 237.817 64.0203C239.915 64.1926 241.699 64.6994 241.962 64.2433C242.084 64.0305 241.76 63.5845 241.05 63.1285C240.101 62.5839 239.04 62.2617 237.949 62.1862C236.857 62.1107 235.762 62.2839 234.747 62.6927C233.976 63.0373 233.601 63.4427 233.693 63.6656Z" fill="#263238"/>
<path d="M216.089 64.6291C216.484 65.0243 217.943 64.5379 219.717 64.4467C221.49 64.3555 223 64.5885 223.335 64.1528C223.477 63.9298 223.223 63.5345 222.544 63.1393C221.619 62.7093 220.6 62.5192 219.581 62.5865C218.563 62.6538 217.578 62.9763 216.717 63.5244C216.109 64.0007 215.916 64.4365 216.089 64.6291Z" fill="#263238"/>
<path d="M252.756 78.564C252.958 78.4626 260.762 75.8276 260.863 83.8947C260.965 91.9619 252.178 90.6545 252.158 90.4316C252.137 90.2086 252.756 78.564 252.756 78.564Z" fill="#FFBF9D"/>
<path d="M255.208 87.0973C255.208 87.0973 255.35 87.1986 255.593 87.2999C255.919 87.4247 256.28 87.4247 256.607 87.2999C257.448 86.9858 258.157 85.6277 258.188 84.1684C258.2 83.4703 258.058 82.7782 257.772 82.1414C257.694 81.8902 257.556 81.6615 257.371 81.4745C257.186 81.2876 256.958 81.1478 256.708 81.0672C256.545 81.0276 256.374 81.0453 256.222 81.1173C256.071 81.1893 255.949 81.3111 255.877 81.4624C255.776 81.6854 255.877 81.8475 255.786 81.8678C255.695 81.8881 255.603 81.7259 255.674 81.4016C255.716 81.2005 255.823 81.0189 255.978 80.8848C256.202 80.7168 256.481 80.6406 256.759 80.6719C257.089 80.7389 257.397 80.887 257.655 81.1029C257.913 81.3188 258.114 81.5956 258.238 81.9083C258.589 82.6056 258.763 83.3781 258.745 84.1582C258.745 85.7798 257.894 87.3101 256.718 87.6648C256.502 87.7278 256.274 87.7423 256.052 87.7073C255.829 87.6722 255.617 87.5885 255.431 87.4621C255.228 87.2594 255.188 87.0973 255.208 87.0973Z" fill="#FF9A6C"/>
<path d="M196.448 57.271C196.586 56.7963 196.902 56.3932 197.33 56.146C198.278 55.7037 199.328 55.5218 200.37 55.619C202.933 55.5256 205.441 54.8535 207.707 53.6529C206.892 53.2825 206.14 52.7867 205.478 52.1834C204.782 51.5608 204.272 50.7581 204.004 49.8639C203.736 48.9697 203.72 48.0188 203.958 47.1161C203.997 46.9485 204.074 46.792 204.183 46.6586C204.292 46.5251 204.43 46.4182 204.586 46.3459C205.113 46.1736 205.599 46.6803 205.944 47.0857C206.415 47.7131 207.048 48.2015 207.774 48.4994C208.5 48.7973 209.293 48.8936 210.069 48.7782C211.141 48.6984 212.18 48.3761 213.109 47.8357L213.2 47.7242L214.487 46.5587C217.528 43.5183 220.072 41.4002 222.747 40.2854C226.669 38.6639 233.247 37.9443 237.371 38.9679C241.496 39.9915 245.216 43.2954 245.834 47.4911C248.114 45.525 251.58 45.4642 254.397 46.5992H254.468C257.6 47.6837 259.414 50.9673 260.377 54.1394C260.428 54.3117 260.468 54.484 260.519 54.6664C261.59 56.3407 263.051 57.7314 264.775 58.7202C265.079 58.8925 265.424 59.1053 265.464 59.4499C265.456 59.6236 265.403 59.7921 265.311 59.9394C265.219 60.0867 265.09 60.2078 264.937 60.2911C264.191 60.8355 263.332 61.206 262.424 61.3755C262.703 62.128 263.041 62.8566 263.438 63.5544C263.802 64.1524 264.228 64.8618 263.924 65.48C263.787 65.7111 263.582 65.8945 263.337 66.0051C263.093 66.1157 262.82 66.1482 262.556 66.0982C262.03 65.99 261.533 65.7725 261.096 65.4597C261.451 66.2908 261.806 67.1218 262.171 67.9528C261.036 68.1529 259.87 68.087 258.765 67.7603C258.137 70.8007 257.701 76.2733 256.951 78.3003C254.813 78.3611 254.296 78.1381 253.212 78.5029C251.823 78.9894 252.381 81.4521 250.556 80.7731C249.624 80.4285 248.165 76.9321 247.851 75.9896C245.72 69.7314 244.963 63.0878 245.631 56.5109C244.318 55.1422 242.752 54.0409 241.02 53.2678L241.162 53.3894C237.848 52.2848 234.067 51.1902 231.027 52.7814C228.615 54.0076 227.216 56.5413 225.423 58.5783C223.914 60.4317 222.029 61.9432 219.892 63.0126C217.756 64.0819 215.416 64.6846 213.028 64.7807C212.613 68.3481 212.542 74.1755 212.4 77.4996L209.532 70.7804C209.309 70.3991 209.106 70.0067 208.924 69.6048L208.853 69.4933C208.57 68.8514 208.252 68.2255 207.9 67.6184C207.537 68.0216 207.029 68.2641 206.487 68.2926C205.946 68.3211 205.415 68.1333 205.012 67.7704C204.608 67.4076 204.366 66.8994 204.337 66.3577C204.309 65.816 204.497 65.2852 204.86 64.8821C205.144 64.4951 205.486 64.1534 205.873 63.8686C205.469 64.2662 204.97 64.5534 204.424 64.7025C203.877 64.8516 203.301 64.8576 202.752 64.7199C202.209 64.558 201.735 64.2223 201.401 63.7646C201.068 63.3068 200.895 62.7523 200.907 62.1863C200.945 61.803 201.084 61.4367 201.31 61.125C201.536 60.8133 201.841 60.5674 202.194 60.4127C200.729 60.5467 199.257 60.2397 197.968 59.531C196.995 59.0851 196.174 58.3148 196.448 57.271Z" fill="#263238"/>
<path d="M242.135 48.8281C242.56 49.1559 242.959 49.515 243.331 49.9024C244.278 51.0196 244.917 52.3645 245.185 53.8042C245.404 54.8032 245.519 55.822 245.53 56.8446C245.53 57.929 245.469 59.0945 245.398 60.3208C245.321 61.6101 245.321 62.9028 245.398 64.1922C245.44 64.8742 245.534 65.5519 245.682 66.2191C245.797 66.9372 246.093 67.6139 246.543 68.1852C246.752 68.4124 247.015 68.5821 247.308 68.6779C247.601 68.7738 247.913 68.7926 248.216 68.7325C248.783 68.6015 249.292 68.2883 249.665 67.8406C250.298 66.9441 250.68 65.8942 250.769 64.8002H250.516C250.885 65.6877 251.38 66.5171 251.986 67.263C252.569 67.9532 253.397 68.3894 254.296 68.4791C254.715 68.5244 255.137 68.4469 255.512 68.2561C255.86 68.0684 256.146 67.7831 256.333 67.4352C256.498 67.1234 256.578 66.7741 256.566 66.4218C256.548 66.0822 256.412 65.7595 256.181 65.5097L256.05 65.6211C256.767 66.4151 257.64 67.0532 258.614 67.4961C258.869 67.6141 259.133 67.7123 259.404 67.7899C259.496 67.8242 259.591 67.848 259.688 67.8609C259.603 67.8106 259.51 67.773 259.414 67.7494C259.242 67.6785 258.978 67.5771 258.654 67.415C257.701 66.9623 256.849 66.3211 256.151 65.5299L256.029 65.6414C256.223 65.889 256.335 66.19 256.351 66.5037C256.368 66.8173 256.287 67.1284 256.12 67.3947C255.958 67.7107 255.699 67.9665 255.381 68.1244C255.041 68.2893 254.662 68.356 254.286 68.317C253.445 68.2235 252.674 67.8053 252.138 67.1515C251.567 66.4386 251.103 65.6466 250.759 64.8002L250.587 64.4253L250.506 64.8306C250.426 65.8654 250.077 66.8613 249.492 67.719C249.141 68.113 248.672 68.3832 248.155 68.4892C247.899 68.5414 247.634 68.5269 247.386 68.447C247.137 68.3671 246.913 68.2246 246.736 68.0332C246.319 67.4961 246.047 66.861 245.945 66.1887C245.797 65.5213 245.699 64.8438 245.651 64.1618C245.575 62.8826 245.575 61.6 245.651 60.3208C245.712 59.0945 245.783 57.929 245.753 56.8243C245.734 55.8006 245.609 54.7815 245.378 53.7839C245.084 52.3247 244.405 50.9706 243.412 49.8619C243.048 49.4468 242.616 49.0972 242.135 48.8281Z" fill="#455A64"/>
<path d="M205.731 60.7471C205.731 60.7471 205.731 60.7471 205.833 60.8281L206.126 61.041C206.288 61.1565 206.458 61.2615 206.633 61.3551C206.866 61.4927 207.106 61.6179 207.353 61.7301C208.946 62.4276 210.687 62.72 212.42 62.5814C214.997 62.3789 217.461 61.4356 219.514 59.8653C222.004 57.9404 224.074 55.5261 225.595 52.7711C226.446 51.332 227.125 49.8524 227.885 48.4943C228.572 47.167 229.446 45.9452 230.48 44.8661C231.408 43.8793 232.568 43.1406 233.855 42.7176C234.437 42.5508 235.043 42.4755 235.649 42.4946C236.21 42.5172 236.766 42.6161 237.3 42.7885C238.22 43.092 239.063 43.5897 239.773 44.2479C240.317 44.7403 240.776 45.319 241.131 45.9607C241.409 46.5218 241.62 47.1137 241.76 47.7241C241.762 47.6836 241.762 47.643 241.76 47.6025C241.76 47.5011 241.739 47.3795 241.699 47.2376C241.598 46.7779 241.441 46.3321 241.233 45.91C240.888 45.2488 240.436 44.6494 239.895 44.1365C239.172 43.4529 238.312 42.9312 237.371 42.6061C236.821 42.4226 236.248 42.3135 235.669 42.2818C235.039 42.2575 234.41 42.3327 233.804 42.5048C232.478 42.9129 231.275 43.6483 230.308 44.6432C229.25 45.7349 228.355 46.974 227.652 48.322C226.892 49.6902 226.203 51.1597 225.372 52.5887C223.88 55.3284 221.854 57.7407 219.413 59.6829C217.399 61.2338 214.983 62.1762 212.45 62.399C210.746 62.555 209.028 62.2977 207.444 61.649C206.857 61.3799 206.285 61.0788 205.731 60.7471Z" fill="#455A64"/>
<path d="M204.596 55.5578C204.596 55.5578 204.738 55.6794 205.032 55.8517C205.433 56.0919 205.853 56.2987 206.288 56.4699C206.943 56.7443 207.622 56.958 208.315 57.1084C209.152 57.2879 210.004 57.3897 210.859 57.4124C211.715 57.4204 212.569 57.3525 213.413 57.2097C214.103 57.0836 214.781 56.9006 215.44 56.6624C215.88 56.5081 216.307 56.3183 216.717 56.0949C216.878 56.0251 217.028 55.933 217.163 55.8213C217.163 55.8213 216.484 56.1152 215.369 56.48C214.706 56.6882 214.028 56.8474 213.342 56.9564C212.514 57.0875 211.677 57.1485 210.839 57.1388C210.001 57.1119 209.168 57.017 208.346 56.855C207.673 56.718 207.012 56.5282 206.37 56.2875C205.255 55.8821 204.626 55.5172 204.596 55.5578Z" fill="#455A64"/>
<path d="M233.905 91.1514C233.824 91.2123 233.682 90.6447 233.044 90.3711C232.637 90.2526 232.204 90.2526 231.797 90.3711C231.291 90.442 230.733 90.5434 230.156 90.6751C227.845 91.1616 226.102 91.9115 225.99 91.7697C227.201 90.9298 228.587 90.3785 230.044 90.1583C230.602 90.0332 231.167 89.9418 231.737 89.8846C232.227 89.7825 232.737 89.8356 233.196 90.0366C233.503 90.2013 233.74 90.4712 233.865 90.7967C233.946 90.9994 233.936 91.1514 233.905 91.1514Z" fill="#263238"/>
<path d="M170.524 149.638C171.545 150.887 172.291 152.337 172.713 153.894C173.057 155.85 177.436 181.258 178.581 184.795C180 189.213 182.949 198.203 194.685 194.828C202.792 192.497 203.086 180.123 197.563 173.342C192.039 166.562 182.837 147.104 182.168 144.58C181.499 142.057 174.922 134.446 167.331 132.419C159.74 130.392 155.94 130.392 153.143 126.703C150.346 123.014 146.93 121.22 145.319 123.987C143.708 126.754 153.143 135.024 153.143 135.024L166.318 147.682L170.524 149.638Z" fill="#FFBF9D"/>
<path d="M145.136 134.517C145.136 134.517 139.299 127.423 135.488 130.372C135.488 130.372 140.434 136.99 142.106 138.784C143.778 140.578 148.116 141.824 148.116 141.824C148.116 141.824 152.454 146.841 154.785 147.51C156.021 147.925 157.359 147.925 158.595 147.51C158.595 147.51 158.656 148.645 162.335 149.172C166.014 149.699 175.753 148.705 175.753 148.705L181.773 143.638C181.773 143.638 178.733 138.571 174.152 138.47C169.571 138.368 166.135 141.875 166.135 141.875L162.081 141.804L159.609 138.601C159.609 138.601 160.085 130.19 155.068 131.122C155.068 131.122 154.896 128.426 152.758 128.163C152.146 128.11 151.536 128.275 151.035 128.629C150.534 128.984 150.175 129.504 150.021 130.098C150.021 130.098 150.467 126.784 148.663 126.115C148.385 125.963 148.078 125.87 147.762 125.842C147.446 125.814 147.128 125.852 146.827 125.952C146.526 126.053 146.25 126.215 146.015 126.428C145.779 126.641 145.591 126.9 145.461 127.19C144.974 128.173 145.136 134.517 145.136 134.517Z" fill="#FFBF9D"/>
<path d="M159.061 147.529C158.423 146.952 157.858 146.298 157.379 145.583C156.903 144.945 156.366 144.185 155.778 143.293C155.443 142.821 155.205 142.287 155.079 141.722C154.953 141.137 154.865 140.545 154.815 139.948C154.672 137.877 154.672 135.798 154.815 133.726C154.818 132.866 154.92 132.009 155.119 131.172C155.221 132.026 155.245 132.888 155.19 133.746C155.19 135.327 155.19 137.516 155.342 139.898C155.384 140.474 155.465 141.046 155.585 141.61C155.69 142.123 155.897 142.609 156.193 143.039C156.72 143.921 157.207 144.702 157.683 145.36C158.201 146.044 158.662 146.77 159.061 147.529Z" fill="#FF9A6C"/>
<path d="M150.082 143.963C149.654 143.402 149.397 142.73 149.342 142.027C149.08 140.389 149.002 138.727 149.109 137.071C149.155 134.731 149.495 132.405 150.123 130.149C150.264 130.149 149.879 133.271 149.687 137.092C149.588 138.719 149.611 140.352 149.758 141.976C149.829 143.213 150.153 143.912 150.082 143.963Z" fill="#FF9A6C"/>
<path d="M148.43 142.209C147.841 141.814 147.32 141.324 146.89 140.76C146.667 140.516 146.434 140.253 146.19 139.949C145.905 139.626 145.672 139.26 145.501 138.864C145.261 137.943 145.122 136.998 145.086 136.047C144.954 134.02 144.964 132.267 144.995 130.98C144.965 130.275 145.029 129.569 145.187 128.882C145.349 128.882 145.37 132.095 145.613 135.976C145.65 136.886 145.766 137.791 145.957 138.682C146.106 139.045 146.304 139.386 146.545 139.695L147.174 140.537C147.645 141.053 148.065 141.613 148.43 142.209Z" fill="#FF9A6C"/>
<path d="M166.135 141.925C165.801 141.988 165.461 142.012 165.122 141.996H162.173H162.092L162.041 141.935C161.013 140.867 160.13 139.667 159.416 138.368V138.317C159.481 137.038 159.371 135.756 159.092 134.507C158.916 133.847 158.613 133.227 158.2 132.682C158.002 132.409 157.751 132.179 157.462 132.005C157.173 131.83 156.852 131.716 156.518 131.669C156.079 131.616 155.635 131.651 155.21 131.77L154.896 131.841V131.527C154.883 130.9 154.712 130.287 154.4 129.743C154.086 129.255 153.608 128.895 153.052 128.73C152.797 128.647 152.526 128.625 152.262 128.668C151.998 128.71 151.747 128.815 151.531 128.973C151.085 129.255 150.713 129.641 150.447 130.098L150.072 130.757V130.007C150.148 128.978 149.893 127.951 149.342 127.078C149.069 126.804 148.734 126.601 148.365 126.484C147.996 126.368 147.605 126.342 147.224 126.409C146.716 126.483 146.243 126.709 145.866 127.058C145.613 127.301 145.522 127.473 145.491 127.463C145.537 127.271 145.636 127.096 145.775 126.956C146.14 126.543 146.632 126.261 147.174 126.156C147.603 126.058 148.049 126.068 148.474 126.184C148.898 126.301 149.287 126.521 149.606 126.825C150.251 127.745 150.572 128.854 150.518 129.977L150.102 129.885C150.393 129.353 150.811 128.9 151.319 128.568C151.594 128.368 151.913 128.235 152.249 128.181C152.585 128.126 152.93 128.151 153.254 128.254C153.925 128.464 154.5 128.906 154.876 129.5C155.24 130.115 155.442 130.813 155.464 131.527L155.139 131.294C155.631 131.161 156.143 131.12 156.649 131.172C157.054 131.227 157.444 131.365 157.793 131.578C158.142 131.79 158.443 132.074 158.676 132.409C159.146 133.01 159.491 133.699 159.69 134.436C159.976 135.732 160.075 137.063 159.984 138.388V138.287C160.663 139.567 161.493 140.762 162.457 141.844L162.325 141.783L165.274 141.905C165.561 141.885 165.849 141.892 166.135 141.925Z" fill="#FF9A6C"/>
<path d="M176.655 138.723C174.991 138.399 173.278 138.426 171.625 138.803C169.972 139.18 168.416 139.898 167.058 140.912C167.058 140.912 167.372 140.395 168.142 139.817C169.153 139.08 170.303 138.557 171.523 138.28C172.743 138.003 174.006 137.978 175.236 138.206C175.743 138.264 176.23 138.441 176.655 138.723Z" fill="#FF9A6C"/>
<path d="M319.188 131.557C318.624 131.34 317.999 131.34 317.435 131.557C314.776 132.387 312.273 133.65 310.026 135.297L311.982 142.036C312.742 140.577 316.279 138.672 317.516 137.587C318.862 136.614 319.786 135.164 320.1 133.534C320.152 133.151 320.093 132.763 319.932 132.413C319.77 132.063 319.512 131.766 319.188 131.557Z" fill="#FF9A6C"/>
<path d="M275.852 189.456C275.292 184.471 275.248 179.441 275.721 174.447C276.278 169.957 279.997 156.711 280.251 152.566C280.504 148.421 280.636 146.485 283.23 144.54C285.825 142.594 285.815 143.526 289.443 141.307C293.071 139.087 293.841 137.557 299.284 137.253C304.726 136.949 308.993 148.644 308.993 148.644C308.993 148.644 308.729 151.107 307.695 151.755C306.662 152.404 305.364 152.526 302.131 152.394C298.898 152.262 295.655 153.043 295.392 154.988C295.228 159.647 295.709 164.306 296.821 168.832C298.118 173.626 297.074 179.19 296.172 183.852C295.27 188.514 293.395 198.689 285.946 199.51C277.2 200.472 275.852 189.456 275.852 189.456Z" fill="#FFBF9D"/>
<path d="M289.098 146.466C289.098 146.466 293.152 146.06 293.801 145.27C294.449 144.479 296.72 136.726 297.986 134.953C299.253 133.179 300.105 132.834 301.483 133.118C301.483 133.118 301.3 129.642 304.442 129.145C304.442 129.145 306.398 128.841 306.712 133.554C306.712 133.554 306.378 129.064 309.702 127.534C310.091 127.347 310.536 127.318 310.946 127.452C311.356 127.586 311.698 127.873 311.901 128.254C311.991 128.432 312.052 128.624 312.084 128.821C312.286 129.895 312.56 134.902 312.56 134.902C312.56 134.902 312.925 141.692 313.016 141.398C313.107 141.104 317.202 131.963 317.789 131.081C318.026 130.54 318.44 130.096 318.964 129.823C319.487 129.55 320.089 129.465 320.668 129.581C320.979 129.602 321.276 129.719 321.519 129.914C321.762 130.11 321.939 130.376 322.026 130.676C322.034 131.164 321.976 131.652 321.853 132.125C321.215 134.719 319.482 141.976 318.813 143.162C318.144 144.347 311.881 150.925 309.327 151.138C307.979 151.269 306.621 151.269 305.273 151.138L289.098 146.466Z" fill="#FFBF9D"/>
<path d="M297.419 149.932C297.358 149.871 298.007 149.121 298.848 147.773C299.343 146.998 299.748 146.168 300.054 145.3C300.233 144.8 300.348 144.279 300.398 143.749C300.398 143.172 300.49 142.574 300.53 141.966C300.723 139.533 300.925 137.334 301.098 135.743C301.141 134.875 301.27 134.012 301.483 133.169C301.569 134.035 301.569 134.907 301.483 135.774C301.402 137.375 301.26 139.584 301.067 142.016C301.017 142.625 300.976 143.222 300.925 143.8C300.861 144.371 300.728 144.933 300.53 145.472C300.181 146.362 299.725 147.206 299.172 147.986C298.707 148.732 298.113 149.391 297.419 149.932Z" fill="#FF9A6C"/>
<path d="M306.672 133.098C306.84 133.938 306.918 134.794 306.905 135.652C306.986 137.222 307.057 139.401 307.108 141.803C307.108 142.401 307.108 142.989 307.108 143.557C307.15 144.122 307.126 144.69 307.037 145.249C306.786 146.165 306.389 147.034 305.861 147.823C305.45 148.579 304.92 149.264 304.29 149.85C304.229 149.85 304.787 148.999 305.547 147.631C305.998 146.854 306.339 146.018 306.56 145.148C306.617 144.626 306.617 144.099 306.56 143.577C306.56 143.009 306.56 142.421 306.56 141.824C306.51 139.412 306.5 137.233 306.56 135.652C306.508 134.799 306.545 133.943 306.672 133.098Z" fill="#FF9A6C"/>
<path d="M312.904 140.729C312.975 140.729 313.239 141.175 313.269 142.017C313.276 142.513 313.197 143.007 313.036 143.476C312.814 144.019 312.549 144.544 312.246 145.047C311.546 146.363 310.647 147.563 309.58 148.604C310.206 147.266 310.945 145.985 311.79 144.773C312.08 144.295 312.344 143.801 312.58 143.294C312.749 142.879 312.855 142.442 312.894 141.996C312.965 141.236 312.844 140.75 312.904 140.729Z" fill="#FF9A6C"/>
<path d="M285.207 146.425C285.207 146.192 289.088 146.871 293.507 145.098L293.72 145.027L293.557 145.179C294.388 143.02 295.159 141.125 295.736 139.706C295.995 138.939 296.335 138.202 296.75 137.507C296.605 138.306 296.374 139.088 296.061 139.838C295.564 141.257 294.855 143.213 294.034 145.371V145.483H293.922L293.709 145.554C292.65 145.915 291.57 146.216 290.477 146.456C289.573 146.638 288.651 146.71 287.73 146.669C286.882 146.708 286.032 146.627 285.207 146.425Z" fill="#FF9A6C"/>
</svg>
