<svg width="600" height="400" viewBox="0 0 600 400" fill="none" xmlns="http://www.w3.org/2000/svg">
  <!-- Background elements -->
  <rect x="50" y="50" width="500" height="300" rx="20" fill="#F0F4FF" />
  
  <!-- Decorative elements -->
  <circle cx="150" cy="100" r="30" fill="#BFDBFE" />
  <circle cx="450" cy="300" r="40" fill="#DBEAFE" />
  
  <!-- Code blocks representing tech -->
  <rect x="200" y="80" width="200" height="30" rx="5" fill="#2563EB" opacity="0.8" />
  <rect x="220" y="120" width="160" height="20" rx="5" fill="#2563EB" opacity="0.6" />
  <rect x="240" y="150" width="120" height="20" rx="5" fill="#2563EB" opacity="0.6" />
  <rect x="220" y="180" width="160" height="20" rx="5" fill="#2563EB" opacity="0.6" />
  
  <!-- India map outline -->
  <path d="M150 250C150 250 160 230 180 225C200 220 210 240 230 235C250 230 260 210 280 215C300 220 310 250 330 245C350 240 350 220 370 225C390 230 400 260 400 260L380 280L340 290L300 295L260 290L220 280L190 270L150 250Z" fill="#93C5FD" />
  
  <!-- Connected dots representing global network -->
  <circle cx="180" cy="230" r="5" fill="#2563EB" />
  <circle cx="230" cy="240" r="5" fill="#2563EB" />
  <circle cx="280" cy="220" r="5" fill="#2563EB" />
  <circle cx="330" cy="250" r="5" fill="#2563EB" />
  <circle cx="380" cy="230" r="5" fill="#2563EB" />
  
  <line x1="180" y1="230" x2="230" y2="240" stroke="#2563EB" stroke-width="2" />
  <line x1="230" y1="240" x2="280" y2="220" stroke="#2563EB" stroke-width="2" />
  <line x1="280" y1="220" x2="330" y2="250" stroke="#2563EB" stroke-width="2" />
  <line x1="330" y1="250" x2="380" y2="230" stroke="#2563EB" stroke-width="2" />
  
  <!-- People icons -->
  <circle cx="150" cy="300" r="15" fill="#2563EB" />
  <rect x="140" y="320" width="20" height="30" rx="5" fill="#2563EB" />
  
  <circle cx="450" cy="150" r="15" fill="#2563EB" />
  <rect x="440" y="170" width="20" height="30" rx="5" fill="#2563EB" />
</svg> 