<svg width="510" height="493" viewBox="0 0 510 493" fill="none" xmlns="http://www.w3.org/2000/svg">
<path d="M397.807 0.343615L395.668 0.729569C377.66 4.03774 362.718 16.697 357.337 34.0208C356.643 36.2509 356.112 38.5285 355.749 40.8357C354.559 49.2395 355.464 57.807 358.382 65.7772C361.3 73.7473 366.142 80.8731 372.477 86.5216C379.987 93.1379 389.724 97.8907 394.311 106.735C400.288 118.236 395.359 132.031 390.386 143.907C385.412 155.784 380.461 169.601 386.548 181.08C390.32 188.27 397.796 192.957 405.57 195.416C426.158 202.032 449.558 194.875 465.349 180.419C481.14 165.962 489.973 145.22 493.49 124.18C498.431 94.6597 493.204 62.802 475.748 38.1671C458.291 13.5322 427.9 -2.58963 397.807 0.343615Z" fill="white"/>
<path d="M20.6089 115.402L21.458 116.956C24.8977 123.371 30.0266 128.722 36.2892 132.43C42.5519 136.139 49.7097 138.064 56.9878 137.996C58.8878 137.963 60.7826 137.786 62.6558 137.467C69.4458 136.23 75.8251 133.335 81.227 129.039C86.6288 124.744 90.8861 119.18 93.6203 112.843C96.7852 105.356 97.9651 96.6221 103.611 90.7887C110.966 83.224 122.876 83.4997 133.318 84.2826C143.761 85.0656 155.671 85.3082 162.993 77.6663C167.569 72.9135 169.267 65.9333 169.212 59.2949C169.047 41.6513 157.501 25.4853 142.295 17.0164C127.088 8.54746 108.816 7.03672 91.6575 9.71635C67.6071 13.4877 44.3616 25.6838 29.9049 45.4667C15.4481 65.2496 10.6733 92.9721 20.6089 115.402Z" fill="white"/>
<path d="M506.338 491.961C506.338 492.126 392.989 492.258 253.186 492.258C113.382 492.258 0 492.126 0 491.961C0 491.795 113.327 491.674 253.186 491.674C393.044 491.674 506.338 491.806 506.338 491.961Z" fill="#263238"/>
<path d="M294.594 491.707H321.798V447.19H294.594V491.707Z" fill="#FF725E"/>
<path d="M404.282 491.707H431.486V416.181H404.282V491.707Z" fill="#FF725E"/>
<path d="M459.132 491.696H486.336V464.26H459.132V491.696Z" fill="#FF725E"/>
<path d="M349.433 491.696H376.637V426.029H349.433V491.696Z" fill="#FF725E"/>
<path d="M239.744 491.707H266.949V409.885H239.744V491.707Z" fill="#FF725E"/>
<path d="M184.906 491.696H212.11V386.441H184.906V491.696Z" fill="#FF725E"/>
<path d="M130.067 491.707H157.271L157.271 360.361H130.067L130.067 491.707Z" fill="#FF725E"/>
<path d="M75.2069 491.696H102.411L102.411 324.964H75.2069L75.2069 491.696Z" fill="#FF725E"/>
<path d="M20.368 491.696H47.5723L47.5723 272.519H20.368L20.368 491.696Z" fill="#FF725E"/>
<path d="M438.774 462.197C434.325 453.762 427.73 446.65 419.655 441.577C411.58 436.505 402.309 433.652 392.779 433.306C404.303 420.548 406.574 400.809 399.925 384.952C393.275 369.094 378.642 357.262 362.212 352.168C345.781 347.073 327.818 348.264 311.486 353.535C313.394 341.14 300.988 328.757 288.594 330.686C291.061 328.998 292.804 326.444 293.478 323.532C294.152 320.619 293.709 317.56 292.235 314.959C290.761 312.358 288.364 310.405 285.519 309.486C282.674 308.568 279.588 308.751 276.872 309.999L277.611 219.058H223.577L224.305 309.955C221.57 308.584 218.413 308.315 215.486 309.205C212.559 310.094 210.086 312.074 208.577 314.735C207.068 317.397 206.639 320.536 207.378 323.504C208.117 326.473 209.969 329.044 212.55 330.686C200.155 328.757 187.749 341.14 189.646 353.535C173.282 348.264 155.307 347.062 138.921 352.168C122.534 357.273 107.791 369.083 101.174 384.952C94.5581 400.82 96.7636 420.548 108.331 433.306C98.7997 433.652 89.5279 436.505 81.4508 441.577C73.3737 446.65 66.7769 453.762 62.3255 462.197C57.2971 472.034 56.8119 486.557 66.6041 491.695H434.495C444.276 486.557 443.813 472.034 438.774 462.197Z" fill="#EBEBEB"/>
<path d="M66.5715 491.696L65.2592 490.913C63.994 490.064 62.8764 489.013 61.9511 487.803C60.5085 485.782 59.5329 483.465 59.095 481.021C58.4926 477.666 58.5338 474.227 59.2163 470.887C60.0209 466.665 61.6146 462.632 63.9139 459C66.5873 454.602 69.8985 450.626 73.7392 447.201C78.1605 443.202 83.2035 439.951 88.6701 437.574L90.8756 436.636L93.1692 435.831C93.9432 435.553 94.7308 435.313 95.5291 435.115C96.334 434.894 97.128 434.641 97.9551 434.464C101.336 433.704 104.78 433.258 108.243 433.13L108.111 433.417C104.632 429.486 101.913 424.943 100.094 420.018C97.5763 413.052 96.6845 405.602 97.4873 398.238C98.29 390.874 100.766 383.791 104.726 377.53C106.409 374.779 108.352 372.194 110.526 369.811C119.831 359.642 132.167 352.743 145.703 350.139C152.863 348.724 160.183 348.294 167.46 348.86C175.001 349.469 182.446 350.949 189.647 353.27L189.316 353.557C188.888 350.562 189.214 347.507 190.264 344.669C191.366 341.727 193.064 339.044 195.252 336.79C197.44 334.535 200.071 332.758 202.979 331.569C206.011 330.345 209.316 329.952 212.55 330.433L212.352 330.918C209.838 329.187 208.064 326.577 207.38 323.602C206.695 320.627 207.15 317.504 208.655 314.848C210.159 312.193 212.604 310.197 215.507 309.254C218.41 308.312 221.561 308.491 224.338 309.757L223.952 310.011C223.71 281.064 223.467 250.541 223.214 219.113V218.826H277.821V219.058C277.567 250.408 277.313 280.81 277.082 309.955L276.696 309.702C279.473 308.436 282.624 308.257 285.527 309.199C288.43 310.142 290.875 312.138 292.38 314.793C293.884 317.449 294.339 320.572 293.654 323.547C292.97 326.521 291.196 329.132 288.682 330.863L288.484 330.378C291.665 329.909 294.914 330.289 297.901 331.481C300.82 332.652 303.463 334.417 305.665 336.662C307.867 338.907 309.579 341.585 310.693 344.526C311.788 347.41 312.13 350.526 311.685 353.579L311.354 353.293C318.555 350.971 326 349.491 333.541 348.882C340.807 348.318 348.115 348.744 355.265 350.15C368.787 352.751 381.115 359.628 390.431 369.767C392.603 372.155 394.548 374.739 396.242 377.486C397.919 380.13 399.337 382.929 400.477 385.845C401.59 388.68 402.428 391.616 402.98 394.612C403.511 397.523 403.787 400.474 403.807 403.433C403.82 409.072 402.849 414.669 400.94 419.974C399.118 424.921 396.388 429.484 392.89 433.428L392.769 433.141C396.235 433.269 399.683 433.715 403.068 434.475C403.884 434.663 404.689 434.916 405.494 435.126C406.293 435.327 407.081 435.57 407.854 435.854L410.159 436.659L412.364 437.596C417.839 439.974 422.89 443.229 427.317 447.234C431.149 450.668 434.456 454.648 437.131 459.044C439.422 462.679 441.011 466.711 441.818 470.931C442.489 474.269 442.522 477.704 441.917 481.054C441.474 483.494 440.499 485.806 439.061 487.825C438.139 489.036 437.021 490.083 435.753 490.924C434.893 491.453 434.441 491.707 434.441 491.707L435.731 490.88C436.961 490.022 438.044 488.972 438.94 487.77C440.353 485.752 441.305 483.448 441.73 481.021C442.313 477.69 442.264 474.278 441.586 470.964C440.773 466.769 439.179 462.763 436.889 459.154C434.214 454.79 430.911 450.844 427.085 447.443C422.675 443.469 417.647 440.24 412.199 437.883L409.993 436.956L407.7 436.162C406.93 435.88 406.146 435.637 405.351 435.435C404.546 435.225 403.752 434.982 402.936 434.795C399.572 434.048 396.146 433.609 392.702 433.483H392.339L392.581 433.207C396.037 429.292 398.733 424.767 400.532 419.864C402.423 414.59 403.378 409.025 403.355 403.422C403.324 400.493 403.047 397.572 402.528 394.689C401.975 391.718 401.137 388.808 400.025 385.999C398.891 383.108 397.484 380.331 395.823 377.707C394.144 375.014 392.225 372.478 390.089 370.131C380.834 360.074 368.59 353.258 355.166 350.69C348.055 349.298 340.787 348.878 333.563 349.444C326.066 350.059 318.666 351.539 311.509 353.855L311.112 353.976L311.167 353.568C311.6 350.593 311.266 347.556 310.197 344.746C309.1 341.89 307.425 339.292 305.277 337.113C303.129 334.935 300.554 333.224 297.714 332.087C294.814 330.918 291.656 330.538 288.561 330.984L287.403 331.172L288.374 330.499C290.761 328.838 292.441 326.345 293.086 323.51C293.731 320.674 293.293 317.7 291.859 315.17C290.425 312.64 288.098 310.737 285.334 309.833C282.57 308.93 279.568 309.092 276.916 310.286L276.53 310.463V310.033C276.762 280.91 276.994 250.485 277.247 219.135L277.534 219.422H223.578L223.864 219.135C224.107 250.563 224.349 281.075 224.581 310.033V310.463L224.184 310.286C221.547 309.136 218.577 309.002 215.846 309.908C213.116 310.815 210.816 312.698 209.39 315.197C207.963 317.696 207.51 320.633 208.118 323.446C208.726 326.258 210.352 328.746 212.683 330.433L213.653 331.106L212.484 330.918C209.357 330.456 206.163 330.837 203.232 332.021C200.353 333.188 197.752 334.951 195.601 337.193C191.334 341.604 188.985 347.713 189.878 353.436L189.944 353.844L189.547 353.723C182.392 351.402 174.991 349.922 167.493 349.312C160.265 348.752 152.995 349.171 145.879 350.558C132.422 353.152 120.16 360.016 110.912 370.131C108.76 372.493 106.829 375.047 105.145 377.762C103.479 380.382 102.075 383.159 100.954 386.054C96.724 396.907 96.5595 408.922 100.491 419.886C102.295 424.771 104.987 429.279 108.431 433.185L108.674 433.461H108.299C104.862 433.587 101.444 434.027 98.0874 434.773C97.2714 434.949 96.4774 435.203 95.6724 435.412C94.8674 435.622 94.0955 435.843 93.3236 436.129L91.041 436.923L88.8355 437.849C83.388 440.199 78.3598 443.421 73.9487 447.388C70.126 450.794 66.8199 454.739 64.1345 459.099C61.8458 462.709 60.249 466.714 59.4258 470.909C58.745 474.226 58.6926 477.641 59.2714 480.977C59.6915 483.408 60.6442 485.717 62.0613 487.737C62.9545 488.948 64.0427 490.003 65.2813 490.857L66.5715 491.696Z" fill="#263238"/>
<path d="M180.439 94.4939L248.489 15.2852L313.88 94.4939H288.363V223.689H209.143V94.6373L180.439 94.4939Z" fill="#71EBA1"/>
<path d="M503.648 223.215L455.47 238.024L467.17 245.402L499.579 265.571L509.999 272.088L503.648 223.215Z" fill="#FF725E"/>
<path d="M286.234 473.942L257.2 459.43L326.065 352.995L354.03 379.802L408.725 292.907L436.029 312.944L485.089 232.919L501.586 240.627L441.256 348.76L410.699 320.233L358.518 417.57L331.06 385.448L286.234 473.942Z" fill="#FF725E"/>
<g opacity="0.3">
<path d="M314.651 446.505C308.035 442.094 299.5 441.653 291.726 443.197C289.156 443.704 286.311 444.366 284.062 443.032C281.812 441.697 281.062 438.896 280.18 436.415C275.637 423.933 263.176 415.375 250.065 413.192C236.953 411.009 226.433 412.089 214.557 418.011C206.195 421.966 199.062 428.113 193.914 435.798C192.139 438.455 188.908 443.87 188.908 443.87C186.537 445.612 183.394 445.733 180.483 446.208C174.468 447.289 168.896 450.096 164.447 454.285C159.997 458.475 156.86 463.867 155.418 469.806L321.996 467.17C325.127 459.848 321.257 450.883 314.651 446.505Z" fill="black"/>
</g>
<path d="M146.299 480.713C151.504 462.264 172.025 449.605 190.849 453.244C194.808 433.174 214.006 417.24 234.506 417.075C255.006 416.909 274.458 432.513 278.736 452.549C290.039 449.947 302.191 448.017 312.987 452.263C323.782 456.508 332.042 469.167 327.576 479.831" fill="#EBEBEB"/>
<path d="M327.576 479.875C327.576 479.875 327.576 479.764 327.664 479.555C327.752 479.345 327.829 479.037 327.951 478.64C328.135 478.141 328.264 477.623 328.337 477.096C328.504 476.398 328.604 475.685 328.634 474.968C328.877 470.224 327.457 465.544 324.62 461.735C322.688 459.007 320.265 456.663 317.475 454.821C314.173 452.7 310.473 451.275 306.602 450.63C302.211 449.901 297.741 449.767 293.314 450.233C288.42 450.775 283.568 451.644 278.791 452.836H278.538V452.582C276.564 444.074 272.135 436.332 265.801 430.318C258.895 423.637 250.088 419.261 240.593 417.791C234.591 416.923 228.47 417.416 222.685 419.236C211.902 422.643 202.684 429.777 196.682 439.361C194.042 443.636 192.175 448.343 191.169 453.266V453.497H190.926C186.902 452.759 182.782 452.707 178.741 453.343C176.876 453.627 175.033 454.043 173.227 454.589L170.658 455.482C169.798 455.758 169.026 456.188 168.221 456.519C166.71 457.216 165.238 457.993 163.81 458.846L161.836 460.169L160.866 460.82L159.984 461.525L158.263 462.904C157.712 463.356 157.227 463.874 156.719 464.337C156.212 464.8 155.727 465.264 155.286 465.749L154.029 467.182C151.516 470.099 149.456 473.378 147.92 476.908C147.39 478.132 147.115 479.114 146.817 479.753C146.519 480.393 146.453 480.735 146.453 480.735C146.453 480.735 146.806 479.356 147.743 476.853C149.235 473.282 151.266 469.961 153.764 467.006L155.032 465.539C155.473 465.054 155.981 464.602 156.466 464.117C156.951 463.632 157.447 463.124 158.01 462.661L159.73 461.261C160.028 461.018 160.314 460.775 160.623 460.544L161.583 459.882L163.578 458.537C165.026 457.665 166.521 456.874 168.056 456.166C168.86 455.824 169.643 455.383 170.504 455.063L173.106 454.148C174.936 453.588 176.805 453.16 178.697 452.869C182.79 452.202 186.967 452.239 191.047 452.979L190.761 453.178C191.772 448.187 193.661 443.415 196.34 439.085C199.241 434.411 202.931 430.277 207.246 426.867C211.788 423.249 216.948 420.485 222.475 418.706C228.342 416.861 234.551 416.364 240.637 417.251C250.248 418.731 259.162 423.162 266.143 429.932C272.548 436.034 277.019 443.884 279.001 452.505L278.681 452.306C283.49 451.146 288.371 450.31 293.292 449.803C297.761 449.343 302.273 449.496 306.701 450.255C310.633 450.917 314.387 452.381 317.728 454.556C320.542 456.437 322.981 458.827 324.918 461.602C327.764 465.467 329.154 470.212 328.844 475.001C328.795 475.726 328.681 476.446 328.502 477.151C328.409 477.667 328.265 478.174 328.072 478.662C327.929 479.048 327.818 479.345 327.741 479.577C327.699 479.683 327.643 479.783 327.576 479.875Z" fill="#263238"/>
<path d="M223.864 196.849C224.57 241.146 189.272 277.756 145.185 278.451C101.098 279.146 64.6858 243.704 63.9469 199.408C63.2081 155.111 98.5284 118.501 142.615 117.806C186.702 117.111 223.158 152.564 223.864 196.849ZM105.674 198.757C105.832 206.309 108.223 213.645 112.546 219.839C116.869 226.033 122.93 230.807 129.964 233.56C136.998 236.313 144.689 236.921 152.068 235.306C159.447 233.692 166.182 229.928 171.424 224.49C176.666 219.051 180.179 212.182 181.521 204.748C182.862 197.315 181.972 189.651 178.962 182.723C175.952 175.795 170.957 169.915 164.608 165.823C158.259 161.731 150.84 159.611 143.288 159.732C133.127 159.926 123.459 164.145 116.407 171.462C109.354 178.779 105.494 188.596 105.674 198.757Z" fill="#E0E0E0"/>
<path d="M223.865 196.85C224.571 241.146 189.273 277.757 145.186 278.451L144.513 236.548C154.699 236.385 164.404 232.183 171.492 224.866C178.58 217.548 182.471 207.714 182.309 197.528C182.146 187.341 177.944 177.637 170.627 170.549C163.309 163.461 153.475 159.57 143.289 159.732L142.616 117.828C186.703 117.101 223.148 152.564 223.865 196.85Z" fill="#455A64"/>
<path d="M144.645 279.025L143.961 236.019H144.513C151.986 235.865 159.247 233.504 165.381 229.233C171.515 224.961 176.248 218.97 178.984 212.015C181.721 205.059 182.338 197.449 180.758 190.143C179.178 182.837 175.473 176.162 170.107 170.958C166.568 167.492 162.376 164.763 157.774 162.931C153.173 161.098 148.252 160.198 143.3 160.283H142.748L142.054 117.277H142.605C163.999 117.003 184.628 125.227 199.966 140.145C215.303 155.063 224.097 175.456 224.416 196.85C225.122 241.455 189.592 278.319 145.196 279.036L144.645 279.025ZM145.075 237.121L145.726 277.922C189.261 276.919 224.019 240.672 223.314 196.872C223 175.866 214.405 155.834 199.398 141.133C184.391 126.431 164.186 118.25 143.178 118.369L143.829 159.17C154 159.255 163.735 163.313 170.954 170.478C178.174 177.642 182.306 187.345 182.469 197.515C182.631 207.685 178.811 217.516 171.825 224.908C164.838 232.3 155.238 236.667 145.075 237.077V237.121Z" fill="#455A64"/>
<path d="M152.364 284.913C100.789 285.751 59.6356 245.722 58.8086 193.894L107.626 193.111C108.023 217.89 126.88 233.482 151.537 233.085L152.364 284.913Z" fill="#497FCC"/>
<path d="M86.8392 194.799C87.1479 195.009 82.5385 202.254 76.5397 210.954C70.5409 219.655 65.4132 226.558 65.1045 226.392C64.7957 226.227 69.4161 218.938 75.4149 210.226C81.4138 201.515 86.5414 194.535 86.8392 194.799Z" fill="#263238"/>
<path d="M108.078 198.824C108.387 199.044 101.561 209.487 92.8387 222.157C84.1161 234.827 76.772 244.917 76.4632 244.708C76.1544 244.498 82.9803 234.056 91.7139 221.385C100.447 208.715 107.792 198.614 108.078 198.824Z" fill="#263238"/>
<path d="M118.4 220.536C118.72 220.746 112.566 230.207 104.682 241.653C96.7975 253.1 90.148 262.208 89.8393 261.999C89.5305 261.789 95.6727 252.328 103.557 240.881C111.442 229.435 118.091 220.316 118.4 220.536Z" fill="#263238"/>
<path d="M136.375 232.545C136.683 232.755 130.541 242.205 122.657 253.662C114.772 265.12 108.123 274.195 107.792 274.008C107.461 273.82 113.625 264.337 121.521 252.879C129.416 241.422 136.066 232.292 136.375 232.545Z" fill="#263238"/>
<path d="M151.769 247.729C152.088 247.95 147.06 255.768 140.565 265.207C134.07 274.647 128.534 282.167 128.225 281.914C127.917 281.66 132.934 273.875 139.44 264.436C145.946 254.996 151.46 247.564 151.769 247.729Z" fill="#263238"/>
<path d="M406.366 43.9012C406.366 43.9012 411.185 32.8078 411.416 31.0655C411.648 29.3232 411.174 25.4746 409.928 24.4491C409.41 23.9483 408.745 23.6258 408.031 23.5287C407.317 23.4315 406.591 23.5646 405.958 23.9088C405.88 23.2101 405.581 22.5544 405.105 22.0369C404.629 21.5194 404.001 21.1669 403.311 21.0307C403.036 20.9341 402.742 20.9057 402.454 20.948C402.166 20.9903 401.893 21.1019 401.657 21.2733C401.422 21.4447 401.231 21.6708 401.103 21.932C400.974 22.1933 400.911 22.4819 400.918 22.773C400.934 22.2764 400.775 21.79 400.469 21.3989C400.162 21.0078 399.728 20.7369 399.242 20.6337C398.604 20.5327 397.95 20.6289 397.368 20.9094C397.368 20.9094 395.019 18.8142 393.442 20.1154C391.865 21.4166 393.684 41.6296 393.684 41.6296L406.366 43.9012Z" fill="#FFBF9D"/>
<path d="M393.398 39.3145C393.398 39.3145 389.098 31.9152 389.12 29.8972C389.142 27.8792 391.557 23.2809 392.902 22.7295C394.247 22.1781 399.518 20.9541 399.518 20.9541C399.518 20.9541 401.724 22.9941 398.471 25.0121L394.788 27.1845C394.788 27.1845 400.698 29.1584 400.511 35.2013" fill="#FFBF9D"/>
<path d="M400.51 35.1455C400.416 34.1964 400.232 33.2585 399.959 32.3446C399.57 31.3333 398.981 30.4107 398.228 29.6319C397.233 28.6291 396.033 27.854 394.71 27.3603L394.214 27.1728L394.666 26.9192L398.415 24.7137C399.055 24.3539 399.562 23.7969 399.86 23.1258C399.965 22.7802 399.971 22.412 399.878 22.063C399.784 21.7141 399.594 21.3984 399.33 21.1519L399.584 21.2181L396.75 21.8907L394.545 22.4752C394.181 22.5855 393.817 22.6847 393.442 22.806C393.273 22.8581 393.107 22.9207 392.946 22.9935C392.809 23.0731 392.679 23.1654 392.56 23.2691C391.637 24.2886 390.892 25.4552 390.354 26.7207C390.068 27.2999 389.828 27.9009 389.637 28.5181C389.435 29.0715 389.356 29.6623 389.406 30.2494C389.668 31.3169 390.037 32.3551 390.509 33.348C391.347 35.2117 392.118 36.6562 392.637 37.7038C392.926 38.223 393.18 38.7608 393.398 39.3138C393.028 38.8493 392.703 38.3508 392.427 37.8251C391.854 36.8327 391.027 35.3881 390.134 33.5245C389.617 32.5096 389.214 31.4408 388.932 30.3376C388.852 29.6795 388.923 29.0119 389.141 28.3858C389.341 27.7432 389.581 27.1134 389.858 26.5001C390.428 25.1599 391.227 23.9287 392.218 22.8611C392.375 22.7188 392.549 22.5966 392.736 22.4972C392.915 22.4133 393.1 22.3397 393.287 22.2767C393.651 22.1554 394.026 22.0451 394.39 21.9459C395.125 21.74 395.86 21.5415 396.596 21.3504L399.452 20.6777H399.606L399.705 20.777C400.05 21.0992 400.297 21.5128 400.416 21.9696C400.535 22.4265 400.522 22.9077 400.378 23.3574C400.032 24.1445 399.44 24.7983 398.691 25.221L394.886 27.3382V26.8971C396.268 27.4347 397.511 28.275 398.525 29.3562C399.303 30.1865 399.89 31.1762 400.246 32.2563C400.371 32.6517 400.459 33.0578 400.51 33.4693C400.567 33.771 400.589 34.078 400.576 34.3846C400.588 34.64 400.565 34.8958 400.51 35.1455Z" fill="#FF9A6C"/>
<path d="M400.478 22.916C399.884 25.0679 399.671 27.3071 399.849 29.5324C399.848 30.281 400.101 31.008 400.566 31.5945C400.825 31.8448 401.141 32.028 401.487 32.128C401.833 32.2279 402.198 32.2416 402.551 32.1679C403.263 31.9971 403.906 31.6122 404.392 31.0652" fill="#FFBF9D"/>
<path d="M404.425 31.1539C404.425 31.1539 404.073 31.9148 402.849 32.3559C402.48 32.475 402.09 32.5071 401.707 32.4497C401.324 32.3923 400.96 32.2469 400.643 32.0251C400.302 31.7034 400.033 31.3129 399.855 30.8794C399.676 30.446 399.591 29.9795 399.607 29.5109C399.34 27.2625 399.659 24.9833 400.533 22.8945C400.227 25.0637 400.109 27.2552 400.18 29.4447C400.163 29.8363 400.224 30.2273 400.36 30.5947C400.497 30.9622 400.705 31.2985 400.974 31.584C401.229 31.7685 401.52 31.8964 401.828 31.9592C402.136 32.0219 402.454 32.0181 402.76 31.9479C403.344 31.7486 403.903 31.4821 404.425 31.1539Z" fill="#FF9A6C"/>
<path d="M395.747 26.9072C395.467 27.6807 395.406 28.5163 395.571 29.3222C395.571 29.8409 395.734 30.3465 396.037 30.7678C396.339 31.1891 396.766 31.505 397.258 31.671C398.096 31.8695 399.176 30.7557 399.673 29.5868" fill="#FFBF9D"/>
<path d="M399.673 29.5878C399.728 29.5878 399.673 30.1391 399.154 30.8339C398.875 31.2571 398.497 31.6055 398.051 31.8484C397.729 31.9755 397.37 31.9755 397.048 31.8484C396.717 31.7383 396.418 31.5491 396.177 31.297C395.736 30.8312 395.458 30.2356 395.383 29.5988C395.357 29.1139 395.357 28.6281 395.383 28.1432C395.383 27.272 395.791 26.831 395.835 26.864C395.879 26.8971 395.736 27.3823 395.835 28.1432L395.989 29.5216C396.08 30.0372 396.317 30.5158 396.673 30.9C396.855 31.0829 397.072 31.2257 397.313 31.319C397.514 31.4018 397.74 31.4018 397.941 31.319C398.335 31.14 398.686 30.8765 398.967 30.5471C399.364 30.0068 399.584 29.5547 399.673 29.5878Z" fill="#FF9A6C"/>
<path d="M406.355 24.0078C405.142 25.3248 404.261 26.9128 403.786 28.6393C403.604 29.0687 403.541 29.5396 403.606 30.0018C403.67 30.4639 403.858 30.9001 404.15 31.2637C404.557 31.5357 405.039 31.6725 405.528 31.6547C406.017 31.6369 406.488 31.4653 406.874 31.1645C407.505 30.7685 408.048 30.247 408.469 29.6324C408.89 29.0178 409.18 28.3232 409.322 27.5917" fill="#FFBF9D"/>
<path d="M409.321 27.5916C409.349 28.3864 409.099 29.166 408.616 29.7971C408.15 30.5303 407.51 31.1366 406.752 31.5614C406.285 31.818 405.763 31.958 405.23 31.9694C404.922 31.9755 404.617 31.9039 404.343 31.7613C404.07 31.6188 403.836 31.4097 403.664 31.1534C403.365 30.6453 403.252 30.0487 403.345 29.4663C403.407 28.9646 403.529 28.4723 403.709 27.9996C403.986 27.2229 404.356 26.4824 404.811 25.7942C405.182 25.1127 405.707 24.5274 406.344 24.085C406.41 24.1511 405.826 24.8017 405.153 26.0037C404.762 26.7045 404.445 27.4435 404.205 28.2092C404.046 28.6468 403.942 29.1024 403.896 29.5655C403.829 30.02 403.91 30.484 404.128 30.8888C404.624 31.6717 405.76 31.5173 406.498 31.1314C407.195 30.7649 407.798 30.2445 408.263 29.6096C408.674 28.969 409.028 28.2937 409.321 27.5916Z" fill="#FF9A6C"/>
<path d="M346.499 114.95C346.499 114.95 352.476 108.499 354.836 107.055C357.195 105.61 372.744 87.0733 374.387 82.1992C376.03 77.3252 391.281 38.1674 390.928 38.6967C390.575 39.226 410.292 42.8319 410.292 42.8319C410.292 42.8319 395.681 88.0437 393.894 93.1603C390.674 102.522 374.718 121.478 365.631 132.858C361.75 137.699 356.39 153.204 356.39 153.204L346.499 114.95Z" fill="#263238"/>
<path d="M360.746 139.265C360.45 138.105 360.262 136.92 360.184 135.725C359.93 133.52 359.698 130.476 359.643 127.102C359.588 123.727 359.709 120.662 359.886 118.456C359.931 117.259 360.078 116.067 360.327 114.895C360.412 116.088 360.412 117.285 360.327 118.478C360.25 120.684 360.195 123.727 360.25 127.091C360.305 130.454 360.47 133.486 360.625 135.692C360.752 136.878 360.792 138.072 360.746 139.265Z" fill="#455A64"/>
<path d="M262.174 369.426L253.771 386.551L252.668 390.741C252.668 390.741 258.281 416.181 254.774 418.695L229.765 378.325L236.205 374.267L244.221 357.152L262.174 369.426Z" fill="#455A64"/>
<path d="M229.831 378.324L232.995 376.505L255.789 415.894C255.789 415.894 256.164 418.155 254.84 418.695L229.831 378.324Z" fill="#263238"/>
<path d="M253.352 391.27C253.154 391.38 252.459 390.454 251.257 389.848C250.055 389.241 248.952 389.23 248.919 388.999C248.886 388.767 250.143 388.392 251.577 389.142C253.01 389.892 253.528 391.204 253.352 391.27Z" fill="#263238"/>
<path d="M254.3 396.597C254.146 396.751 253.297 396.101 252.095 395.913C250.893 395.726 249.889 396.068 249.823 395.913C249.757 395.759 250.694 394.921 252.183 395.174C253.672 395.428 254.455 396.421 254.3 396.597Z" fill="#263238"/>
<path d="M250.992 401.934C250.838 401.78 251.61 400.92 252.944 400.832C254.278 400.743 255.249 401.372 255.149 401.548C255.05 401.725 254.146 401.548 253.054 401.626C251.963 401.703 251.147 402.111 250.992 401.934Z" fill="#263238"/>
<path d="M347.878 243.44C347.062 245.38 304.872 309.967 296.215 317.146C287.559 324.325 258.017 383.232 258.017 383.232C258.017 383.232 233.878 371.532 233.338 372.8C232.798 374.069 250.265 331.217 260.686 313.617C271.106 296.018 275.969 289.214 275.969 289.214L296.701 233.934C296.701 233.934 297.131 215.728 299.788 208.649C302.446 201.569 310.253 195.416 310.253 195.416L347.878 243.44Z" fill="#263238"/>
<path d="M309.877 321.49L287.437 323.1C287.437 323.1 281.681 347.68 277.512 348.408L272.572 302.645L307.418 298.631L309.877 321.49Z" fill="#455A64"/>
<path d="M287.801 308.743C287.648 308.309 287.332 307.952 286.921 307.746C286.509 307.54 286.034 307.502 285.595 307.64C285.184 307.818 284.854 308.142 284.667 308.549C284.479 308.956 284.449 309.417 284.581 309.845C284.754 310.284 285.087 310.641 285.512 310.846C285.937 311.05 286.424 311.087 286.874 310.948C287.29 310.715 287.604 310.334 287.753 309.881C287.902 309.427 287.876 308.935 287.679 308.5" fill="#E0E0E0"/>
<path d="M272.627 302.644L276.156 302.391L279.564 346.356C279.564 346.356 278.946 348.485 277.568 348.407L272.627 302.644Z" fill="#263238"/>
<path d="M287.746 323.817C287.525 323.817 287.316 322.715 286.511 321.7C285.706 320.686 284.757 320.189 284.824 319.969C284.89 319.748 286.147 319.969 287.095 321.215C288.044 322.461 287.944 323.817 287.746 323.817Z" fill="#263238"/>
<path d="M286.434 328.823C286.235 328.889 285.772 327.963 284.791 327.301C283.809 326.639 282.839 326.529 282.828 326.308C282.817 326.088 283.997 325.812 285.199 326.65C286.401 327.488 286.577 328.79 286.434 328.823Z" fill="#263238"/>
<path d="M281.229 332.142C281.163 331.943 282.188 331.513 283.435 331.965C284.681 332.417 285.221 333.399 285.056 333.52C284.89 333.641 284.206 333.057 283.192 332.704C282.177 332.351 281.273 332.362 281.229 332.142Z" fill="#263238"/>
<path d="M292.807 322.846C292.609 322.78 292.807 321.744 292.576 320.464C292.344 319.185 291.87 318.259 292.035 318.127C292.201 317.994 293.072 318.854 293.303 320.332C293.535 321.81 293.05 322.935 292.807 322.846Z" fill="#263238"/>
<path d="M290.227 226.501C290.227 226.501 290.172 248.027 299.942 255.294C309.712 262.561 343.588 289.908 343.588 289.908L289.499 299.149L293.546 324.225C293.546 324.225 366.557 316.859 375.49 313.87C384.422 310.882 390.851 295.764 383.859 285.2C380.342 279.929 343.996 228.255 343.996 228.255L342.893 214.394L297.075 217.283L290.227 226.501Z" fill="#263238"/>
<path d="M293.547 324.225C293.5 324.086 293.466 323.942 293.447 323.795C293.381 323.465 293.304 323.034 293.205 322.494C292.995 321.314 292.708 319.649 292.345 317.51C291.617 313.099 290.569 306.88 289.29 299.183V298.973H289.5L338.88 290.46L343.566 289.655L343.434 290.162C335.814 283.866 328.569 277.933 321.964 272.607L312.569 265.108C309.624 262.782 306.79 260.697 304.453 258.492C300.736 255.093 297.498 251.205 294.826 246.935C294.104 245.777 293.452 244.577 292.874 243.341C292.664 242.922 292.532 242.591 292.444 242.37C292.39 242.262 292.353 242.147 292.334 242.028C292.399 242.129 292.454 242.236 292.499 242.348C292.598 242.569 292.753 242.888 292.973 243.296C293.588 244.503 294.265 245.678 295.002 246.814C297.734 251.016 300.999 254.845 304.717 258.205C307.055 260.356 309.889 262.407 312.844 264.733C315.8 267.06 318.975 269.541 322.284 272.188C328.9 277.503 336.178 283.414 343.798 289.71L344.283 290.107L343.665 290.206L338.979 291.011L289.577 299.381L289.753 299.138C290.955 306.858 291.959 313.121 292.609 317.488C292.929 319.638 293.183 321.314 293.359 322.494C293.436 323.046 293.491 323.476 293.536 323.806C293.555 323.945 293.558 324.086 293.547 324.225Z" fill="#455A64"/>
<path d="M358.177 291.462C358.177 291.628 354.968 290.691 350.954 290.271C346.941 289.852 343.643 290.084 343.632 289.908C344.329 289.693 345.054 289.585 345.783 289.588C347.525 289.48 349.274 289.521 351.01 289.709C352.748 289.884 354.468 290.212 356.148 290.691C356.862 290.834 357.548 291.095 358.177 291.462Z" fill="#455A64"/>
<path d="M324.787 45.9302C325.115 44.9481 325.738 44.091 326.57 43.4754C327.403 42.8598 328.405 42.5156 329.44 42.4897C330.48 41.3607 331.87 40.6135 333.385 40.3676C334.9 40.1217 336.455 40.3913 337.799 41.1333C338.601 40.4536 339.564 39.9919 340.596 39.7926C341.628 39.5933 342.694 39.6633 343.692 39.9957C344.689 40.3281 345.584 40.9118 346.29 41.6905C346.996 42.4692 347.49 43.4166 347.723 44.4415C348.739 44.1068 349.833 44.0912 350.858 44.3968C351.883 44.7023 352.79 45.3144 353.457 46.1507C354.096 47.0135 354.459 48.05 354.496 49.1231C354.534 50.1962 354.244 51.2554 353.667 52.1606C354.88 52.3231 355.99 52.9304 356.781 53.8648C357.573 54.7992 357.989 55.9941 357.949 57.2178C357.909 58.4415 357.416 59.6068 356.566 60.4878C355.716 61.3688 354.569 61.9026 353.347 61.9859L326.716 51.4438C325.866 50.8358 325.223 49.9797 324.878 48.9927C324.533 48.0057 324.501 46.936 324.787 45.9302Z" fill="#263238"/>
<path d="M354.251 62.5375C352.903 57.4662 349.701 53.0855 345.278 50.2615C340.856 47.4376 335.534 46.376 330.366 47.2868L329.264 47.4743C317.939 50.2311 316.251 61.4899 319.339 72.837L328.128 115.402L349.19 127.918L351.726 118.622V103.471C351.726 103.471 362.423 99.7545 360.548 88.6611C359.611 83.2467 356.854 72.3959 354.251 62.5375Z" fill="#FFBF9D"/>
<path d="M351.781 103.383C346.669 104.312 341.397 103.749 336.597 101.762C336.597 101.762 340.908 109.723 351.704 106.724L351.781 103.383Z" fill="#FF9A6C"/>
<path d="M352.884 72.9687C352.965 73.3778 352.883 73.8027 352.654 74.1514C352.425 74.5002 352.067 74.7447 351.659 74.8323C351.464 74.8852 351.26 74.8986 351.059 74.8715C350.858 74.8445 350.665 74.7777 350.49 74.675C350.316 74.5723 350.163 74.4358 350.042 74.2734C349.921 74.1111 349.834 73.9262 349.785 73.7295C349.703 73.319 349.785 72.8928 350.014 72.5422C350.243 72.1917 350.6 71.945 351.009 71.8549C351.205 71.8021 351.41 71.7892 351.611 71.8169C351.813 71.8446 352.006 71.9124 352.181 72.0162C352.356 72.12 352.508 72.2578 352.629 72.4214C352.749 72.585 352.836 72.771 352.884 72.9687Z" fill="#263238"/>
<path d="M353.094 68.9224C352.928 69.165 351.583 68.4924 349.896 68.8121C348.209 69.1319 347.084 70.1906 346.897 70.0251C346.709 69.8597 346.897 69.5399 347.393 69.0437C348.027 68.3975 348.849 67.969 349.742 67.8197C350.621 67.6555 351.53 67.7792 352.333 68.1726C352.928 68.4703 353.171 68.8121 353.094 68.9224Z" fill="#263238"/>
<path d="M338.119 76.2986C338.201 76.7091 338.118 77.1354 337.89 77.4859C337.661 77.8364 337.303 78.0832 336.895 78.1732C336.699 78.2246 336.495 78.2368 336.295 78.2091C336.095 78.1814 335.902 78.1144 335.728 78.0119C335.554 77.9094 335.401 77.7735 335.28 77.6119C335.158 77.4503 335.07 77.2663 335.02 77.0705C334.938 76.6613 335.021 76.2365 335.25 75.8877C335.479 75.539 335.836 75.2944 336.244 75.2069C336.439 75.1538 336.642 75.14 336.842 75.1663C337.043 75.1926 337.236 75.2584 337.41 75.3601C337.585 75.4617 337.737 75.597 337.859 75.7581C337.98 75.9192 338.069 76.103 338.119 76.2986Z" fill="#263238"/>
<path d="M336.873 71.6241C336.707 71.8667 335.362 71.205 333.675 71.5138C331.988 71.8226 330.896 72.9032 330.676 72.7268C330.455 72.5504 330.676 72.2416 331.161 71.7454C331.803 71.1044 332.627 70.677 333.521 70.5214C334.4 70.3579 335.308 70.4816 336.112 70.8742C336.707 71.183 336.95 71.5138 336.873 71.6241Z" fill="#263238"/>
<path d="M344.724 83.2248C345.563 82.7771 346.456 82.4399 347.382 82.2213C347.812 82.1 348.198 81.9457 348.22 81.6369C348.179 81.1814 347.998 80.7498 347.701 80.4018L345.816 77.3252C343.191 72.9143 341.206 69.2974 341.405 69.1871C341.603 69.0768 343.853 72.5615 346.477 76.9062C347.117 78.0089 347.734 79.0234 348.308 80.0159C348.676 80.491 348.868 81.08 348.848 81.681C348.813 81.8447 348.741 81.9983 348.638 82.1301C348.535 82.262 348.403 82.3686 348.253 82.4419C348.025 82.5538 347.784 82.6354 347.536 82.6845C346.624 82.9773 345.68 83.1588 344.724 83.2248Z" fill="#263238"/>
<path d="M339.96 85.3084C340.236 85.2422 340.577 87.0838 342.386 88.1093C344.194 89.1348 346.113 88.5724 346.168 88.8261C346.223 89.0797 345.804 89.2672 344.977 89.4436C343.904 89.6507 342.792 89.4751 341.835 88.9474C340.916 88.4283 340.233 87.5752 339.927 86.5655C339.717 85.8046 339.839 85.3194 339.96 85.3084Z" fill="#263238"/>
<path d="M336.057 66.7606C335.935 67.2458 334.402 67.1135 332.638 67.4663C330.874 67.8192 329.462 68.4478 329.209 68.0398C329.087 67.8523 329.308 67.3892 329.859 66.937C330.567 66.3479 331.413 65.9493 332.318 65.7792C333.224 65.5972 334.162 65.6658 335.031 65.9777C335.704 66.1872 336.057 66.5401 336.057 66.7606Z" fill="#263238"/>
<path d="M351.858 64.3351C351.671 64.7872 350.425 64.699 349.035 65.0519C347.646 65.4048 346.565 65.9892 346.19 65.6584C346.025 65.504 346.102 65.0739 346.521 64.5557C347.084 63.9356 347.82 63.499 348.634 63.3024C349.448 63.1058 350.303 63.1582 351.086 63.4529C351.671 63.7617 351.936 64.1146 351.858 64.3351Z" fill="#263238"/>
<path d="M352.266 57.6518C352.266 57.6518 348.109 51.245 344.492 50.2415C340.081 49.0064 339.188 53.7702 335.152 53.3843C331.116 52.9983 326.948 51.8184 323.563 55.5125C319.868 59.5595 322.294 61.4783 322.923 66.4405C325.459 86.5432 322.923 92.8398 320.144 83.643C319.846 82.6396 316.836 82.3308 315.645 78.0632C314.079 72.5496 312.623 65.7458 313.153 61.5224C313.594 57.9606 315.072 55.292 318.038 52.1051C322.702 47.0656 330.113 45.6321 335.24 45.2241C340.368 44.8161 351.153 48.8962 352.266 57.6518Z" fill="#263238"/>
<path d="M322.184 82.9593C322.098 82.5572 321.931 82.1767 321.693 81.8408C321.456 81.505 321.153 81.2208 320.802 81.0054C320.452 80.79 320.061 80.6478 319.654 80.5876C319.247 80.5273 318.833 80.5501 318.435 80.6546C316.417 81.217 314.344 82.8601 315.248 87.0504C316.869 94.571 324.07 91.4062 324.014 91.1857C323.959 90.9651 322.89 86.1021 322.184 82.9593Z" fill="#FFBF9D"/>
<path d="M321.776 88.7054C321.776 88.7054 321.666 88.8267 321.468 88.9811C321.185 89.177 320.837 89.256 320.497 89.2016C319.953 88.9931 319.474 88.6446 319.108 88.1915C318.742 87.7384 318.502 87.1968 318.413 86.6213C318.266 85.9753 318.266 85.3044 318.413 84.6584C318.432 84.4096 318.51 84.169 318.643 83.9576C318.776 83.7462 318.958 83.5704 319.174 83.4454C319.316 83.3745 319.479 83.3555 319.634 83.3917C319.789 83.428 319.927 83.5171 320.023 83.6439C320.166 83.8314 320.155 83.9857 320.188 83.9968C320.221 84.0078 320.321 83.8314 320.188 83.5336C320.105 83.357 319.966 83.2133 319.791 83.1256C319.671 83.0756 319.542 83.0498 319.411 83.0498C319.28 83.0498 319.151 83.0756 319.031 83.1256C318.739 83.2559 318.485 83.4575 318.292 83.712C318.1 83.9664 317.974 84.2654 317.928 84.5812C317.749 85.3055 317.749 86.0624 317.928 86.7867C318.035 87.4638 318.339 88.0946 318.801 88.6004C319.264 89.1063 319.865 89.4649 320.53 89.6317C320.737 89.6399 320.943 89.6027 321.133 89.5227C321.324 89.4427 321.494 89.3218 321.633 89.1686C321.798 88.937 321.809 88.7164 321.776 88.7054Z" fill="#FF9A6C"/>
<path d="M318.269 68.5252C319.329 69.1127 320.52 69.4237 321.732 69.4294C322.33 69.4099 322.901 69.1767 323.342 68.7721C323.784 68.3675 324.065 67.8183 324.136 67.224C324.136 66.6837 323.893 66.1213 324.136 65.625C324.378 65.1288 325.239 65.0847 325.889 65.0406C327.013 64.9229 328.062 64.4189 328.856 63.6146C329.651 62.8102 330.141 61.7553 330.245 60.6297C330.648 60.9438 331.154 61.0944 331.663 61.0515C332.172 61.0086 332.646 60.7753 332.991 60.3981C333.658 59.6178 334.214 58.7496 334.645 57.8177C334.861 57.3529 335.188 56.9485 335.598 56.6407C336.008 56.3329 336.487 56.1311 336.994 56.0534C337.555 56.1412 338.125 56.1634 338.692 56.1195C339.662 55.8549 339.938 54.5978 339.905 53.5833C339.872 52.5688 339.783 51.3778 340.522 50.7162C341.319 50.2132 342.27 50.0136 343.202 50.1538C344.128 50.1538 345.264 49.6907 345.341 48.7533C345.336 48.5067 345.282 48.2636 345.181 48.0383C345.081 47.8129 344.937 47.6099 344.757 47.4411C343.982 46.6355 342.957 46.117 341.849 45.9707C340.741 45.8245 339.616 46.0591 338.659 46.6361C338.071 45.4405 337.138 44.4481 335.982 43.7862C334.826 43.1243 333.498 42.8232 332.169 42.9216C330.84 43.02 329.571 43.5133 328.525 44.3383C327.479 45.1633 326.703 46.2822 326.297 47.5514C325.367 46.9651 324.308 46.6139 323.212 46.5279C322.115 46.442 321.015 46.6239 320.004 47.0579C318.994 47.492 318.105 48.1652 317.412 49.0196C316.72 49.874 316.246 50.8839 316.031 51.9623C315.065 51.9 314.102 52.1176 313.257 52.589C312.412 53.0603 311.721 53.7655 311.267 54.6198C310.837 55.4888 310.662 56.4623 310.763 57.4268C310.865 58.3912 311.238 59.307 311.84 60.0673C311.202 60.5445 310.696 61.1768 310.37 61.9043C310.043 62.6317 309.908 63.4303 309.977 64.2246C310.23 65.7904 312.028 67.0806 313.461 66.43C313.305 67.0933 313.39 67.7905 313.702 68.3968C314.013 69.003 314.53 69.4785 315.16 69.7382C315.819 69.95 316.532 69.9133 317.166 69.635C317.8 69.3567 318.31 68.856 318.6 68.2275" fill="#263238"/>
<path d="M312.899 66.4639C312.918 66.7328 312.993 66.9947 313.121 67.2323C313.248 67.4699 313.424 67.6778 313.638 67.8423C314.095 68.2524 314.689 68.4766 315.303 68.4709C315.697 68.4621 316.083 68.3666 316.436 68.1913C316.789 68.0159 317.098 67.765 317.343 67.4564H317.012C317.539 68.0991 318.169 68.6505 318.876 69.0884C319.344 69.3851 319.864 69.5909 320.408 69.6949C320.922 69.7869 321.451 69.7412 321.941 69.5626C322.374 69.4501 322.776 69.2435 323.119 68.9575C323.462 68.6716 323.738 68.3134 323.926 67.9085C324.14 67.3719 324.249 66.799 324.246 66.2213C324.246 65.8133 324.246 65.5928 324.191 65.5928C324.123 65.7886 324.083 65.9926 324.07 66.1993C324.013 66.7413 323.868 67.2703 323.639 67.7651C323.421 68.1387 323.126 68.4623 322.774 68.715C322.423 68.9677 322.022 69.1439 321.598 69.2322C321.174 69.3205 320.736 69.319 320.313 69.2278C319.89 69.1365 319.49 68.9576 319.14 68.7025C318.457 68.2941 317.84 67.7848 317.31 67.1917L317.133 66.9932L316.979 67.2028C316.776 67.4672 316.518 67.6848 316.223 67.8408C315.928 67.9969 315.603 68.0876 315.27 68.107C314.732 68.1359 314.203 67.9672 313.781 67.6328C313.412 67.3056 313.113 66.9082 312.899 66.4639Z" fill="#455A64"/>
<path d="M324.003 46.6031C324.003 46.6031 324.213 46.6031 324.566 46.7023C325.087 46.8185 325.561 47.0918 325.922 47.4853L326.032 47.6176L326.11 47.4522C326.826 46.0045 327.895 44.7606 329.219 43.8352C330.065 43.2311 331.032 42.8172 332.053 42.6222C333.165 42.4228 334.311 42.5374 335.361 42.9531C336.192 43.2809 336.943 43.7807 337.567 44.4197C338.145 45.0203 338.572 45.7498 338.813 46.5479L338.879 46.7905L339.1 46.6803C339.991 46.2475 341.006 46.1451 341.966 46.3915C342.925 46.6379 343.766 47.217 344.338 48.0256C344.785 48.6889 345.082 49.4414 345.209 50.231C345.255 50.0203 345.255 49.8022 345.209 49.5915C345.108 48.9993 344.883 48.4354 344.547 47.9374C344.045 47.1464 343.298 46.5421 342.419 46.2171C341.857 46.0097 341.26 45.9156 340.662 45.9402C340.064 45.9648 339.477 46.1076 338.934 46.3605L339.21 46.4928C338.97 45.619 338.515 44.8192 337.887 44.166C337.127 43.3802 336.185 42.7932 335.145 42.4567C334.104 42.1201 332.997 42.0445 331.921 42.2363C330.848 42.4555 329.833 42.8989 328.944 43.5375C327.584 44.5139 326.513 45.8398 325.845 47.375H326.043C325.634 46.9683 325.104 46.7052 324.533 46.6251C324.202 46.5259 324.003 46.581 324.003 46.6031Z" fill="#455A64"/>
<path d="M336.575 230.427C337.622 230.515 341.206 231.783 345.86 223.171C350.513 214.559 354.979 182.668 354.979 182.668L336.575 230.427Z" fill="#E0E0E0"/>
<path d="M356.655 170.372L357.184 139.551L350.987 115.964C350.987 115.964 346.653 109.171 341.923 105.719C338.867 103.38 335.378 101.671 331.656 100.691L324.555 98.9707L323.794 104.859L344.404 128.502L356.655 170.372Z" fill="#E0E0E0"/>
<path d="M323.927 101.066C323.927 101.066 340.886 102.522 349.091 123.022C353.502 134.049 356.181 163.547 356.7 168.156C357.218 172.766 355.487 183.341 352.344 197.588C351.726 200.356 349.51 207.634 343.467 225.288C336.994 244.167 331.833 258.106 331.833 258.106L277.601 237.154L304.574 189.847C304.574 189.847 303.151 175.269 303.217 173.879C303.736 163.04 301.629 156.941 305.213 136.111C306.267 129.885 308.453 123.905 311.664 118.467C315.083 112.722 317.608 111.002 323.408 106.679L323.927 101.066Z" fill="#263238"/>
<path d="M329.727 230.283L331.16 218.848L305.301 208.361L300.582 219.289L329.727 230.283Z" fill="#263238"/>
<path d="M329.727 230.284L329.142 230.031L327.488 229.369L321.39 226.987L300.681 219.059L300.846 219.433L304.86 210.182L305.577 208.505L305.191 208.671L331.083 219.059L330.962 218.849C330.576 222.323 330.256 225.157 330.035 227.175C329.936 228.134 329.859 228.895 329.793 229.479C329.727 230.064 329.716 230.295 329.727 230.306C329.79 230.064 329.834 229.817 329.859 229.567C329.947 229.005 330.057 228.266 330.19 227.362C330.476 225.311 330.873 222.444 331.359 218.915V218.761L331.215 218.706L305.389 208.13L305.18 208.031L305.07 208.296C304.838 208.847 304.596 209.399 304.353 209.961C302.963 213.181 301.618 216.302 300.361 219.235L300.24 219.511L300.515 219.61L321.533 227.395L327.609 229.601L329.219 230.174C329.385 230.226 329.555 230.263 329.727 230.284Z" fill="#455A64"/>
<path d="M351.164 201.414C351.148 201.516 351.122 201.615 351.087 201.712L350.822 202.561L349.719 205.869C348.76 208.747 347.404 212.838 345.716 217.867L332.318 257.388L332.032 258.226L331.932 258.513L331.657 258.403L293.304 243.483L281.736 238.907L278.605 237.639L277.8 237.297L277.524 237.153L277.822 237.242L278.649 237.528L281.814 238.697L293.447 243.108L331.855 257.885L331.48 258.061C331.58 257.796 331.668 257.51 331.767 257.223C337.06 241.785 341.857 227.89 345.342 217.745C347.084 212.739 348.506 208.67 349.51 205.803L350.723 202.517C350.844 202.175 350.954 201.899 351.032 201.679C351.109 201.458 351.153 201.414 351.164 201.414Z" fill="#455A64"/>
<path d="M271.448 261.8C271.448 261.8 277.855 240.925 283.313 239.503C288.772 238.08 295.983 237.86 297.252 241.422C298.812 245.912 299.523 250.654 299.347 255.404C298.978 259.777 298.259 264.114 297.196 268.372L291.628 266.641C291.628 266.641 296.039 245.447 294.859 241.973C293.679 238.499 284.482 239.337 282.795 242.943C281.108 246.549 275.748 263.123 275.748 263.123L271.448 261.8Z" fill="#455A64"/>
<path d="M245.853 288.066C247.805 279.322 252.37 260.09 254.388 251.677C254.652 250.568 255.334 249.605 256.292 248.988C257.25 248.372 258.409 248.149 259.527 248.368L311.796 258.668C312.919 258.89 313.911 259.54 314.563 260.481C315.215 261.421 315.477 262.578 315.292 263.707L309.392 300.031C309.298 300.612 309.088 301.169 308.775 301.667C308.463 302.166 308.053 302.597 307.571 302.936C307.089 303.274 306.545 303.512 305.969 303.636C305.394 303.76 304.799 303.768 304.22 303.659L249.36 293.371C248.776 293.263 248.22 293.039 247.724 292.712C247.229 292.384 246.805 291.96 246.478 291.465C246.15 290.97 245.926 290.413 245.819 289.829C245.711 289.245 245.723 288.646 245.853 288.066Z" fill="#455A64"/>
<path d="M309.911 272.055L309.845 272.441C309.79 272.717 309.723 273.114 309.624 273.61C309.426 274.658 309.128 276.168 308.742 278.12L305.434 294.783L305.169 296.128C305.108 296.614 304.909 297.073 304.596 297.451C304.264 297.837 303.821 298.11 303.328 298.234C302.83 298.334 302.315 298.312 301.828 298.168L295.851 297.01L282.618 294.463L268.051 291.629L260.332 290.129L256.396 289.357L255.403 289.17C255.052 289.12 254.708 289.032 254.378 288.905C254.036 288.755 253.734 288.529 253.493 288.244C253.252 287.96 253.079 287.624 252.988 287.262C252.928 286.949 252.928 286.627 252.988 286.314C252.988 285.994 253.109 285.729 253.165 285.442L253.529 283.733L254.256 280.348C254.731 278.142 255.205 275.937 255.668 273.731C256.609 269.372 257.509 265.178 258.369 261.149V260.962H258.557C273.411 264.766 286.257 267.479 295.366 269.276C299.931 270.17 303.559 270.842 306.04 271.294L308.907 271.824L309.624 271.967L309.867 272.022H309.602L308.863 271.912L306.018 271.449C303.526 271.03 299.898 270.401 295.333 269.53C286.191 267.81 273.333 265.119 258.458 261.359L258.689 261.216C257.84 265.241 256.936 269.453 256.01 273.809C255.547 276.014 255.072 278.22 254.598 280.425C254.356 281.528 254.113 282.63 253.87 283.81L253.506 285.509C253.329 286.037 253.283 286.601 253.374 287.152C253.453 287.453 253.598 287.732 253.798 287.971C253.999 288.209 254.249 288.4 254.532 288.53C254.837 288.646 255.156 288.724 255.48 288.762L256.473 288.96L260.41 289.732L268.129 291.232L282.707 294.088L295.939 296.679L301.916 297.859C302.36 297.99 302.829 298.013 303.283 297.925C303.712 297.821 304.097 297.586 304.386 297.253C304.665 296.912 304.841 296.499 304.893 296.062C304.993 295.61 305.081 295.168 305.169 294.738C306.614 287.747 307.794 282.101 308.599 278.198C309.018 276.246 309.337 274.724 309.558 273.676C309.668 273.169 309.757 272.772 309.812 272.485C309.867 272.199 309.911 272.055 309.911 272.055Z" fill="#263238"/>
<path d="M290.426 292.378C290.426 292.378 290.745 292.434 291.363 292.434C292.258 292.404 293.126 292.121 293.866 291.618C294.44 291.206 294.916 290.674 295.263 290.058C295.61 289.443 295.818 288.76 295.873 288.056C296.193 286.413 296.568 284.549 296.976 282.487C297.185 281.45 297.395 280.37 297.615 279.245C297.935 278.12 297.821 276.916 297.296 275.871C297.009 275.329 296.613 274.854 296.133 274.474C295.652 274.095 295.098 273.819 294.506 273.665C293.249 273.389 291.892 273.136 290.536 272.86L272.793 269.309C272.047 269.161 271.275 269.207 270.553 269.445C269.83 269.683 269.181 270.103 268.669 270.666C268.161 271.214 267.807 271.888 267.643 272.618L267.18 274.823L266.298 279.234C266.158 279.969 266.015 280.675 265.868 281.351C265.711 282.028 265.593 282.712 265.515 283.402C265.48 284.055 265.591 284.707 265.839 285.311C266.087 285.916 266.466 286.458 266.949 286.898C267.416 287.314 267.964 287.63 268.559 287.824C269.132 288.001 269.783 288.1 270.378 288.232L277.116 289.611L286.875 291.64L289.521 292.213L290.205 292.367L290.437 292.434H290.194L289.499 292.312L286.842 291.816L277.061 289.908L270.301 288.53C269.694 288.398 269.088 288.32 268.437 288.133C267.794 287.928 267.204 287.585 266.706 287.129C266.179 286.658 265.764 286.074 265.491 285.422C265.219 284.77 265.095 284.064 265.129 283.358C265.211 282.65 265.332 281.947 265.493 281.252C265.636 280.557 265.769 279.851 265.912 279.135C266.199 277.712 266.497 276.257 266.794 274.724C266.938 273.985 267.092 273.235 267.246 272.518C267.427 271.727 267.807 270.994 268.349 270.39C268.909 269.777 269.616 269.318 270.404 269.058C271.192 268.797 272.034 268.743 272.848 268.901L290.591 272.485C291.947 272.772 293.271 273.015 294.572 273.312C295.215 273.485 295.814 273.791 296.331 274.211C296.848 274.631 297.271 275.155 297.571 275.749C298.122 276.866 298.236 278.148 297.891 279.344C297.66 280.447 297.439 281.55 297.229 282.575C296.81 284.626 296.424 286.49 296.127 288.089C296.039 288.497 295.961 288.894 295.851 289.28C295.732 289.64 295.569 289.985 295.366 290.305C295.018 290.876 294.547 291.362 293.987 291.728C293.219 292.237 292.317 292.505 291.396 292.5C291.069 292.504 290.742 292.463 290.426 292.378Z" fill="#263238"/>
<g opacity="0.3">
<path d="M254.222 288.685C268.93 296.387 285.57 299.618 302.091 297.981L254.222 288.685Z" fill="black"/>
</g>
<path d="M287.051 277.789L280.92 276.554C280.689 276.508 280.47 276.417 280.275 276.286C280.08 276.155 279.913 275.987 279.783 275.791C279.653 275.596 279.562 275.376 279.517 275.146C279.472 274.915 279.473 274.678 279.519 274.448C279.615 273.986 279.889 273.581 280.28 273.319C280.672 273.057 281.151 272.959 281.615 273.047L287.779 274.293C288.009 274.338 288.228 274.428 288.423 274.558C288.618 274.687 288.785 274.855 288.915 275.049C289.045 275.244 289.136 275.463 289.181 275.692C289.226 275.922 289.226 276.159 289.179 276.388C289.135 276.622 289.044 276.844 288.912 277.041C288.78 277.239 288.61 277.408 288.411 277.539C288.213 277.669 287.99 277.759 287.757 277.802C287.523 277.845 287.283 277.84 287.051 277.789Z" fill="#E0E0E0"/>
<path d="M296.843 234.816C297.653 236.045 298.312 237.367 298.806 238.753C299.029 241.235 299.073 243.73 298.939 246.219C298.939 246.219 297.648 246.869 296.601 243.407C296.049 241.742 295.654 240.029 295.421 238.29L296.843 234.816Z" fill="#FFBF9D"/>
<path d="M296.678 245.898L296.921 234.97L292.708 226.887L279.343 226.634L278.869 239.866C278.869 239.866 280.832 245.546 281.769 246.615C282.707 247.685 284.581 246.891 284.581 246.891C285.585 248.479 288.364 247.894 288.364 247.894C289.72 249.515 291.837 247.994 291.837 247.994C291.837 247.994 293.69 249.692 294.539 249.581C294.896 249.496 295.214 249.294 295.443 249.008C296.217 248.155 296.656 247.05 296.678 245.898Z" fill="#FFBF9D"/>
<path d="M283.556 244.067C283.677 244.067 283.997 244.608 284.25 245.369C284.504 246.129 284.625 246.791 284.493 246.835C284.361 246.879 284.052 246.284 283.798 245.523C283.545 244.762 283.423 244.111 283.556 244.067Z" fill="#FF9A6C"/>
<path d="M287.018 243.902C287.353 244.539 287.587 245.223 287.713 245.931C287.989 246.596 288.164 247.299 288.231 248.016C287.728 247.474 287.388 246.801 287.25 246.075C286.966 245.388 286.886 244.634 287.018 243.902Z" fill="#FF9A6C"/>
<path d="M290.966 244.255C291.109 244.255 291.208 245.093 291.407 246.096C291.605 247.1 291.793 247.916 291.661 247.971C291.528 248.026 291.12 247.243 290.922 246.185C290.723 245.126 290.845 244.255 290.966 244.255Z" fill="#FF9A6C"/>
<path d="M296.766 238.4C296.983 239.775 297.046 241.169 296.954 242.558C297.013 243.943 296.913 245.33 296.656 246.693C296.369 243.934 296.406 241.151 296.766 238.4Z" fill="#FF9A6C"/>
<path d="M283.357 241.874C283.357 241.874 283.357 242.072 283.071 242.216C282.754 242.399 282.381 242.458 282.023 242.381C281.661 242.308 281.339 242.104 281.119 241.808C280.953 241.587 280.942 241.4 280.998 241.378C281.053 241.356 281.483 241.786 282.1 241.907C282.718 242.028 283.28 241.764 283.357 241.874Z" fill="#FF9A6C"/>
<path d="M287.393 242.535C287.393 242.535 287.316 242.733 287.051 242.866C286.702 243.008 286.319 243.047 285.949 242.976C285.566 242.906 285.214 242.717 284.945 242.436C284.747 242.204 284.702 242.028 284.747 241.984C284.791 241.94 285.309 242.37 286.037 242.502C286.765 242.634 287.327 242.414 287.393 242.535Z" fill="#FF9A6C"/>
<path d="M295.123 241.73C295.123 241.664 295.432 242.016 295.123 242.491C294.701 242.959 294.11 243.24 293.48 243.273C292.872 243.329 292.262 243.19 291.738 242.877C291.352 242.623 291.198 242.369 291.242 242.325C291.939 242.624 292.689 242.781 293.447 242.788C293.962 242.759 294.457 242.579 294.87 242.27C295.123 242.016 295.057 241.752 295.123 241.73Z" fill="#FF9A6C"/>
<path d="M336.729 138.945C331.48 144.459 298.884 176.438 298.884 176.438C298.884 176.438 296.998 228.156 296.05 228.376C295.101 228.597 276.366 227.064 276.366 227.064C276.366 227.064 273.742 172.236 275.925 165.984C278.108 159.731 305.985 123.176 306.592 122.415C307.198 121.654 310.396 116.064 321.06 113.318C333.553 110.12 338.802 116.108 340.909 122.25C342.717 127.543 339.266 135.769 337.6 137.975C337.331 138.316 337.04 138.64 336.729 138.945Z" fill="#263238"/>
<path d="M336.729 138.945C336.729 138.945 336.883 138.725 337.214 138.339C337.695 137.759 338.102 137.122 338.427 136.442C339.739 133.852 340.636 131.073 341.085 128.205C341.456 126.152 341.32 124.039 340.688 122.051C339.897 119.694 338.546 117.563 336.751 115.843C335.726 114.922 334.556 114.177 333.288 113.638C331.93 113.096 330.5 112.758 329.043 112.634C325.846 112.492 322.65 112.922 319.604 113.902C316.214 114.874 313.045 116.496 310.274 118.677C308.837 119.874 307.578 121.27 306.536 122.823L302.974 127.532C298.2 133.895 293.127 140.765 287.911 147.988C285.32 151.627 282.662 155.376 280.104 159.279C278.778 161.221 277.574 163.243 276.498 165.333C276.388 165.609 276.244 165.863 276.145 166.138L275.98 166.987C275.844 167.563 275.76 168.15 275.726 168.741L275.572 170.538L275.484 172.347C275.142 182.062 275.417 192.196 275.693 202.473C275.947 210.854 276.266 219.069 276.63 227.031L276.366 226.766L286.434 227.56L291.374 227.902L293.811 228.045L295.024 228.101H295.873C296.126 226.541 296.299 224.969 296.391 223.392C296.49 221.804 296.601 220.238 296.7 218.672C296.876 215.555 297.045 212.49 297.207 209.475C297.814 197.434 298.31 186.318 298.652 176.394V176.305V176.239L326.374 148.936L333.972 141.503L335.957 139.574C336.409 139.144 336.652 138.934 336.652 138.934C336.652 138.934 336.442 139.177 336.001 139.618L334.06 141.592L326.551 149.112L298.983 176.559L299.049 176.405C298.696 186.329 298.266 197.434 297.681 209.487C297.527 212.493 297.365 215.559 297.196 218.683C297.086 220.249 296.987 221.826 296.887 223.414C296.801 225.033 296.62 226.646 296.347 228.244C296.321 228.331 296.28 228.413 296.226 228.486C296.177 228.55 296.106 228.594 296.027 228.608H295.939H295.586H294.969L293.745 228.553L291.297 228.409L286.356 228.067L276.288 227.285H276.035V227.031C275.671 219.058 275.351 210.843 275.098 202.451C274.822 192.13 274.546 182.051 274.899 172.292L274.987 170.472L275.153 168.653C275.188 168.04 275.273 167.432 275.406 166.833L275.605 165.929C275.71 165.639 275.832 165.356 275.969 165.08C277.054 162.961 278.274 160.913 279.619 158.949C282.199 155.023 284.857 151.285 287.459 147.646C292.686 140.379 297.781 133.564 302.577 127.212L306.128 122.537C306.702 121.798 307.231 120.982 307.904 120.331C308.535 119.628 309.221 118.975 309.955 118.379C315.429 114.228 322.165 112.086 329.032 112.314C330.528 112.46 331.993 112.832 333.377 113.417C334.678 113.966 335.875 114.734 336.916 115.689C338.741 117.446 340.107 119.623 340.897 122.029C341.535 124.062 341.66 126.222 341.261 128.315C340.787 131.2 339.848 133.989 338.482 136.574C338.142 137.251 337.716 137.881 337.214 138.449C336.916 138.758 336.729 138.945 336.729 138.945Z" fill="#455A64"/>
<path d="M355.222 162.609C355.117 162.416 355.042 162.208 355.001 161.992C354.858 161.529 354.681 160.889 354.461 160.194C353.987 158.562 353.358 156.291 352.553 153.512C350.965 147.767 348.793 139.882 346.356 131.038V130.917L346.422 130.807C347.029 129.858 347.679 128.844 348.341 127.829L348.837 127.046L349.058 127.488L345.408 127.146H345.22L345.154 126.958C344.503 124.9 343.749 122.876 342.893 120.893C342.138 119.053 341.184 117.3 340.048 115.666C338.907 114.315 337.504 113.209 335.924 112.413C334.469 111.586 333.068 110.892 331.789 110.285C329.209 109.072 327.102 108.19 325.647 107.583L323.982 106.889C323.781 106.823 323.589 106.734 323.408 106.624C323.617 106.65 323.821 106.706 324.015 106.789C324.412 106.922 324.985 107.12 325.724 107.396C327.202 107.936 329.341 108.763 331.943 109.932C333.245 110.528 334.656 111.2 336.145 112.016C337.791 112.816 339.257 113.942 340.456 115.325C341.633 116.975 342.617 118.755 343.39 120.629C344.265 122.628 345.038 124.671 345.705 126.749L345.452 126.55L349.113 126.881H349.576L349.322 127.278L348.826 128.061L346.896 131.038V130.807C349.267 139.684 351.373 147.568 352.906 153.335C353.634 156.136 354.218 158.419 354.648 160.062C354.825 160.812 354.979 161.418 355.09 161.893C355.167 162.124 355.212 162.365 355.222 162.609Z" fill="#455A64"/>
<path d="M351.417 129.66C345.021 133.431 339.827 133.409 329.153 132.505C321.753 131.876 315.269 129.759 307.848 129.527C297.152 129.208 289.102 132.472 279.398 136.883L272.208 145.374L285.694 149.454C294.81 144.77 304.986 142.535 315.225 142.97C331.766 143.874 347.293 139.364 352.784 135.162L354.67 129.935L353.953 127.201L351.681 126.991L351.417 129.66Z" fill="#FF725E"/>
<path d="M351.417 129.66C351.417 129.66 351.417 129.428 351.417 128.976C351.417 128.524 351.505 127.874 351.583 127.024V126.947H351.649L353.92 127.135H353.987V127.201C354.196 127.995 354.45 128.91 354.725 129.925C354.196 131.457 353.568 133.233 352.884 135.174C351.27 136.349 349.513 137.316 347.657 138.052C345.533 138.952 343.353 139.711 341.129 140.323C332.871 142.567 324.315 143.516 315.766 143.135C312.495 142.971 309.217 143.074 305.963 143.444C302.53 143.848 299.139 144.553 295.829 145.55C292.367 146.554 289.013 147.899 285.816 149.564H285.706H285.596L277.722 147.381L272.098 145.649L271.679 145.528L271.955 145.197L279.145 136.695H279.2C283.832 134.497 288.624 132.654 293.535 131.182C298.077 129.87 302.792 129.264 307.518 129.384C311.731 129.595 315.921 130.148 320.045 131.038C323.595 131.765 327.185 132.277 330.796 132.571C333.746 132.858 336.71 132.983 339.673 132.946C341.89 132.914 344.093 132.588 346.223 131.976C347.556 131.574 348.851 131.057 350.094 130.432L351.042 129.936L351.384 129.77C351.384 129.77 351.296 129.847 351.086 129.969C350.877 130.09 350.557 130.289 350.138 130.52C348.908 131.195 347.616 131.749 346.279 132.174C344.133 132.839 341.907 133.209 339.662 133.277C336.689 133.343 333.714 133.244 330.752 132.979C327.127 132.714 323.521 132.224 319.957 131.513C315.852 130.654 311.685 130.123 307.496 129.925C302.82 129.818 298.156 130.432 293.668 131.744C288.803 133.226 284.055 135.069 279.464 137.258L279.564 137.181L272.385 145.683L272.253 145.219L277.843 146.918L285.739 149.3H285.518C288.764 147.585 292.174 146.204 295.697 145.175C299.036 144.177 302.457 143.473 305.919 143.069C309.214 142.705 312.533 142.609 315.843 142.782C324.334 143.183 332.837 142.276 341.052 140.092C343.261 139.494 345.43 138.757 347.547 137.886C349.379 137.167 351.119 136.23 352.73 135.096V135.163L354.648 129.936V130.002L353.965 127.267L354.042 127.344L351.77 127.102H351.847L351.616 129.076C351.494 129.45 351.417 129.66 351.417 129.66Z" fill="#263238"/>
<path d="M326.132 198.481C326.132 198.625 321.203 197.015 315.248 194.886C311.617 193.693 308.05 192.313 304.562 190.751C304.618 190.608 309.492 192.218 315.446 194.346C319.077 195.539 322.644 196.919 326.132 198.481Z" fill="#455A64"/>
</svg>
