<?xml version="1.0" encoding="UTF-8"?>
<svg width="800" height="400" viewBox="0 0 800 400" fill="none" xmlns="http://www.w3.org/2000/svg">
  <!-- Background Elements -->
  <path d="M0 0h800v400H0z" fill="#F8FAFC"/>
  <path d="M100 50c300 0 300 300 600 300" stroke="#E2E8F0" stroke-width="2"/>
  <path d="M50 150c350-50 400 200 700 150" stroke="#E2E8F0" stroke-width="2"/>
  
  <!-- Central Circular Connection -->
  <circle cx="400" cy="200" r="120" fill="#2563EB" opacity="0.1"/>
  <circle cx="400" cy="200" r="100" stroke="#2563EB" stroke-width="2" fill="none"/>
  
  <!-- Connection Points -->
  <g id="connection-points">
    <!-- Respect Point -->
    <circle cx="300" cy="150" r="40" fill="#1E40AF" opacity="0.8"/>
    <text x="300" y="155" text-anchor="middle" fill="white" font-family="Arial" font-size="12">Respect</text>
    
    <!-- Learning Point -->
    <circle cx="500" cy="150" r="40" fill="#1E40AF" opacity="0.8"/>
    <text x="500" y="155" text-anchor="middle" fill="white" font-family="Arial" font-size="12">Learning</text>
    
    <!-- Results Point -->
    <circle cx="400" cy="300" r="40" fill="#1E40AF" opacity="0.8"/>
    <text x="400" y="305" text-anchor="middle" fill="white" font-family="Arial" font-size="12">Results</text>
  </g>
  
  <!-- Connection Lines -->
  <path d="M300 150l100 50 M500 150l-100 50 M400 200v100" stroke="#2563EB" stroke-width="2" stroke-dasharray="4 4"/>
  
  <!-- People Icons -->
  <g id="people-icons">
    <!-- Person 1 -->
    <circle cx="250" cy="100" r="15" fill="#2563EB"/>
    <path d="M240 120c0-10 20-10 20 0" fill="#2563EB"/>
    
    <!-- Person 2 -->
    <circle cx="550" cy="100" r="15" fill="#2563EB"/>
    <path d="M540 120c0-10 20-10 20 0" fill="#2563EB"/>
    
    <!-- Person 3 -->
    <circle cx="400" cy="350" r="15" fill="#2563EB"/>
    <path d="M390 370c0-10 20-10 20 0" fill="#2563EB"/>
  </g>
  
  <!-- Decorative Elements -->
  <g id="decorative-elements">
    <circle cx="200" cy="200" r="5" fill="#2563EB" opacity="0.5"/>
    <circle cx="600" cy="200" r="5" fill="#2563EB" opacity="0.5"/>
    <circle cx="400" cy="100" r="5" fill="#2563EB" opacity="0.5"/>
    <path d="M180 180l40 40 M580 180l40 40 M380 80l40 40" stroke="#2563EB" stroke-width="1" opacity="0.3"/>
  </g>
  
  <!-- Central Text -->
  <text x="400" y="200" text-anchor="middle" fill="#1E40AF" font-family="Arial" font-size="24" font-weight="bold">Culture</text>
</svg> 