<svg width="200" height="200" viewBox="0 0 200 200" fill="none" xmlns="http://www.w3.org/2000/svg">
  <!-- Background -->
  <rect width="200" height="200" fill="#F3F4F6" rx="20"/>
  
  <!-- Left Puzzle Piece -->
  <path d="M60 70C60 65 65 60 70 60H90V80C95 80 100 85 100 90C100 95 95 100 90 100V120H70C65 120 60 115 60 110V70Z" fill="#2563EB"/>
  
  <!-- Right Puzzle Piece -->
  <path d="M140 130C140 135 135 140 130 140H110V120C105 120 100 115 100 110C100 105 105 100 110 100V80H130C135 80 140 85 140 90V130Z" fill="#93C5FD"/>
  
  <!-- Connection Lines -->
  <circle cx="100" cy="90" r="4" fill="white"/>
  <circle cx="100" cy="110" r="4" fill="white"/>
  
  <!-- Glow Effect -->
  <circle cx="100" cy="100" r="15" fill="#DBEAFE" opacity="0.3"/>
</svg> 