<svg width="200" height="200" viewBox="0 0 200 200" fill="none" xmlns="http://www.w3.org/2000/svg">
  <!-- Background -->
  <rect width="200" height="200" fill="#F3F4F6" rx="20"/>
  
  <!-- Central Circle -->
  <circle cx="100" cy="100" r="30" fill="#2563EB"/>
  
  <!-- Team Member Circles -->
  <circle cx="50" cy="70" r="20" fill="#93C5FD"/>
  <circle cx="150" cy="70" r="20" fill="#93C5FD"/>
  <circle cx="50" cy="130" r="20" fill="#93C5FD"/>
  <circle cx="150" cy="130" r="20" fill="#93C5FD"/>
  
  <!-- Connection Lines -->
  <line x1="70" y1="70" x2="80" y2="80" stroke="#DBEAFE" stroke-width="2"/>
  <line x1="130" y1="70" x2="120" y2="80" stroke="#DBEAFE" stroke-width="2"/>
  <line x1="70" y1="130" x2="80" y2="120" stroke="#DBEAFE" stroke-width="2"/>
  <line x1="130" y1="130" x2="120" y2="120" stroke="#DBEAFE" stroke-width="2"/>
  
  <!-- Team Icons -->
  <circle cx="100" cy="100" r="15" fill="white"/>
  <path d="M95 100C95 97 97 95 100 95C103 95 105 97 105 100C105 103 103 105 100 105C97 105 95 103 95 100Z" fill="#2563EB"/>
  
  <!-- Connection Dots -->
  <circle cx="75" cy="75" r="3" fill="white"/>
  <circle cx="125" cy="75" r="3" fill="white"/>
  <circle cx="75" cy="125" r="3" fill="white"/>
  <circle cx="125" cy="125" r="3" fill="white"/>
</svg> 