<?xml version="1.0" encoding="UTF-8"?>
<svg width="200" height="60" viewBox="0 0 200 60" fill="none" xmlns="http://www.w3.org/2000/svg">
  <!-- Base triangle -->
  <path d="M35 45l20-30 20 30z" fill="#E2E8F0"/>
  <!-- Layered triangles -->
  <path d="M40 43l15-23 15 23z" fill="#2563EB" opacity="0.8"/>
  <path d="M45 41l10-16 10 16z" fill="#1E40AF" opacity="0.8"/>
  <!-- Vertex points -->
  <circle cx="55" cy="15" r="3" fill="#2563EB"/>
  <circle cx="35" cy="45" r="3" fill="#2563EB"/>
  <circle cx="75" cy="45" r="3" fill="#2563EB"/>
  <!-- Connection lines -->
  <path d="M35 45l20-30 20 30h-40z" stroke="#1E40AF" stroke-width="0.5" fill="none"/>
  <path d="M55 15v30 M35 45l40-0" stroke="#1E40AF" stroke-width="0.5" stroke-dasharray="2 2"/>
  <!-- Inner pattern -->
  <path d="M50 30l5-8 5 8-5 8z" fill="white" opacity="0.6"/>
  <!-- Data points -->
  <circle cx="50" cy="25" r="1" fill="#2563EB"/>
  <circle cx="60" cy="25" r="1" fill="#2563EB"/>
  <circle cx="55" cy="35" r="1" fill="#2563EB"/>
  <!-- Company name with enhanced styling -->
  <path d="M80 15h85v30H80z" fill="#1E40AF"/>
  <text x="85" y="35" fill="white" font-family="Arial" font-size="18" font-weight="bold">VERTEX</text>
  <!-- Geometric pattern -->
  <path d="M170 20l3 5-3 5 M175 20l3 5-3 5 M180 20l3 5-3 5" 
        stroke="#2563EB" stroke-width="0.5" fill="none"/>
</svg> 